<svg xmlns="http://www.w3.org/2000/svg" viewBox="0 0 750 500"><g id="freepik--background-complete--inject-153"><path d="M104.28,252.32c25.62-12.89,35.27-42.31,38.27-69.56.5-4.55,1.68-9.25.1-13.54s-6.21-7.72-10.54-6.4c-3.59,1.09-5.62,4.79-8,7.76a26.74,26.74,0,0,1-12.08,8.6c-3.1,1.08-6.8,1.48-9.42-.5C99,176,99.36,170.5,100,166q1.9-12.58,3.8-25.16c.68-4.49,1.36-9.09.57-13.57s-3.3-8.89-7.41-10.71-9.77-.12-11.31,4.16c-.64,1.78-.54,3.74-.94,5.59s-1.56,3.79-3.41,4.06-3.49-1.27-4.65-2.78c-4-5.22-6.3-11.54-8.4-17.79s-4.11-12.63-7.61-18.19S51.92,81.26,45.52,80s-13.84,1.69-16.39,7.78.22,13.09,3.51,18.81a101.86,101.86,0,0,0,18,23c1.28,1.21,2.66,2.52,3,4.27.55,3.14-2.73,5.71-5.84,6.27-3.52.63-7.11-.24-10.68-.34s-7.6.91-9.41,4c-2.51,4.33.65,9.71,4,13.42a86.93,86.93,0,0,0,23.36,18.4c3.13,1.69,6.47,3.25,8.8,6s3.36,7,1.29,9.93-6.36,3.36-9.74,2.21-6.21-3.47-9.34-5.2c-5.85-3.23-13.9-4-18.64.82-3.11,3.14-4.05,8-3.34,12.38s2.87,8.38,5.22,12.12c8.24,13.07,19.58,24.27,33.22,31.32s26.74,10.33,41.76,7.17" style="fill:#f5f5f5"></path><path d="M99.74,234.3A406.59,406.59,0,0,0,90,188.55q-1.6-6-3.17-11.87c-1-3.89-2.08-7.75-3.34-11.46a200.8,200.8,0,0,0-8.4-20.92c-3-6.52-6.08-12.6-9-18.27s-5.77-10.88-8.56-15.54A161.76,161.76,0,0,0,42.76,89.54c-1.94-2.33-3.49-4.08-4.56-5.26L37,83a2.88,2.88,0,0,0-.44-.43,4.6,4.6,0,0,0,.37.49l1.17,1.38c1,1.21,2.54,3,4.44,5.36A171.11,171.11,0,0,1,57,110.8c2.75,4.66,5.55,9.89,8.45,15.56s6,11.76,8.92,18.27a207.87,207.87,0,0,1,8.33,20.86C84,169.18,85,173,86,176.91s2.1,7.85,3.16,11.85A417,417,0,0,1,99,234.42" style="fill:#e0e0e0"></path><path d="M83.26,165.15A8.45,8.45,0,0,0,84,163.3c.42-1.21,1-3,1.6-5.18,1.29-4.39,2.85-10.52,4.56-17.28s3.35-12.85,4.7-17.21c.67-2.18,1.22-3.94,1.63-5.15a9.74,9.74,0,0,0,.53-1.92,9.33,9.33,0,0,0-.84,1.8c-.5,1.18-1.14,2.92-1.88,5.09-1.5,4.33-3.25,10.41-5,17.18S86.16,153.35,85,158l-1.34,5.24A10.28,10.28,0,0,0,83.26,165.15Z" style="fill:#e0e0e0"></path><path d="M26.93,146a12.51,12.51,0,0,0,2.27.61c1.46.35,3.59.84,6.19,1.53,5.22,1.34,12.37,3.44,20.15,6.11s14.72,5.4,19.68,7.51c2.49,1,4.48,1.94,5.86,2.55a12.63,12.63,0,0,0,2.18.88,12.42,12.42,0,0,0-2-1.18c-1.34-.7-3.29-1.68-5.76-2.8-4.91-2.26-11.84-5.08-19.65-7.77a205.24,205.24,0,0,0-20.27-5.88c-2.64-.62-4.79-1-6.28-1.27A12.33,12.33,0,0,0,26.93,146Z" style="fill:#e0e0e0"></path><path d="M99.18,233.14a2.89,2.89,0,0,0,.5-.65l1.29-2c1.12-1.7,2.67-4.2,4.54-7.32,3.76-6.23,8.67-15,14-24.74s10.11-18.56,13.73-24.85c1.77-3.06,3.22-5.58,4.31-7.45.46-.82.84-1.49,1.16-2a2.68,2.68,0,0,0,.35-.74,3.85,3.85,0,0,0-.5.65L137.23,166c-1.12,1.7-2.66,4.2-4.54,7.32-3.75,6.23-8.66,15-14,24.75S108.62,216.62,105,222.92l-4.3,7.44-1.16,2A3.18,3.18,0,0,0,99.18,233.14Z" style="fill:#e0e0e0"></path><path d="M25.83,197.22a3.15,3.15,0,0,0,.72.42l2.12,1.08,7.86,3.86c6.63,3.26,15.73,7.87,25.79,13s19.21,9.64,25.91,12.76c3.35,1.56,6.07,2.8,8,3.62l2.19.93a3.82,3.82,0,0,0,.79.27,2.68,2.68,0,0,0-.72-.43l-2.12-1.07-7.85-3.86c-6.63-3.26-15.74-7.87-25.8-13S43.48,205.16,36.78,202c-3.35-1.57-6.07-2.81-8-3.62l-2.19-.93A3.17,3.17,0,0,0,25.83,197.22Z" style="fill:#e0e0e0"></path><path d="M643.25,337.12a34.09,34.09,0,0,0-14.59-5c-2.38-.24-5-.17-6.9,1.27a1.44,1.44,0,0,0-.71,1.26,1.52,1.52,0,0,0,.68.86c5.93,4.53,14.91,5.1,21.52,1.64" style="fill:#e0e0e0"></path><path d="M642.87,336.7a70.76,70.76,0,0,1-9.42-8.29,23.81,23.81,0,0,1-5.9-10.92,4.42,4.42,0,0,1,.46-3.66c7.51,5.87,13.41,13.45,14.86,22.87" style="fill:#e0e0e0"></path><path d="M643.17,337.06a34,34,0,0,1,.18-12.37,16.75,16.75,0,0,1,6.58-10.21c1.3,3,.74,6.53-.17,9.7a47.1,47.1,0,0,1-6.53,13.75" style="fill:#e0e0e0"></path><path d="M650.53,350.25c-4.47.54-8.36,2.9-11.69,5.92a22.15,22.15,0,0,0-6.7,11.49c4.39-.27,8.11-3.37,10.8-6.83s4.57-7.27,7.53-10.51" style="fill:#e0e0e0"></path><path d="M652.13,352.36a28.86,28.86,0,0,1,3.33-27.29c2.55,9.06,1.61,19.28-3.33,27.29" style="fill:#e0e0e0"></path><path d="M661.86,363.94a20.87,20.87,0,0,0-20,11.48,1.55,1.55,0,0,0-.13,1.57,1.49,1.49,0,0,0,1.32.39c3.93-.26,7.42-2.62,10.29-5.32s5.38-5.8,8.56-8.13" style="fill:#e0e0e0"></path><path d="M661.55,363.31a37.17,37.17,0,0,1-.37-20.75c.73-2.67,2-5.49,4.43-6.74a.85.85,0,0,1,.67-.12.89.89,0,0,1,.43.5,12.48,12.48,0,0,1,1,5.95,37.26,37.26,0,0,1-.94,6c-.77,3.68-1.19,7.64-3.21,10.82a20.92,20.92,0,0,0-1.28,2.38c-.39.8-.39,1.09-.74,1.73" style="fill:#e0e0e0"></path><path d="M687.3,367.15c-1.91-7.26.11-16.06,4.69-22,.33-.44.78-.91,1.33-.86.84.08,1.06,1.2,1,2a39.76,39.76,0,0,1-7,20.82" style="fill:#e0e0e0"></path><path d="M689.62,368.73a32,32,0,0,0,26.26-5.34,21.26,21.26,0,0,0-14.22-1.74c-4.75,1.08-9.09,3.21-12,7.08" style="fill:#e0e0e0"></path><path d="M691.58,363.9c4.93-8,14.4-13.3,23.83-13.78-1.09,3.84-4.24,6.82-7.8,8.62s-7.52,2.59-11.44,3.35c-1.52.29-3.61.62-4.59,1.81" style="fill:#e0e0e0"></path><path d="M687.79,340.46a69.9,69.9,0,0,0,3.05-14c.36-4.76-.32-9.72-2.78-13.81-4.62,8.93-5.08,19.35-.41,28.25" style="fill:#e0e0e0"></path><path d="M703.31,332.61c5.4-9.8,16.4-17.63,27.54-18.73-4.3,10.7-16,19-27.54,18.73" style="fill:#e0e0e0"></path><path d="M699.92,334.53c8,1.23,14.9,6.36,22.41,9.48a10.2,10.2,0,0,0,5.07,1,4,4,0,0,0,2.48-7,10.72,10.72,0,0,0-3.68-2.23c-8.18-3.41-17-3.49-25.59-1.43" style="fill:#e0e0e0"></path><path d="M695.27,340.17c1.82.52,2.44,1.47,3.88,2.7a42,42,0,0,0,17,8.73c.65.16,1.5.22,1.82-.36s-.07-1.14-.44-1.59a23.38,23.38,0,0,0-10.26-7c-3.92-1.46-7.32-3.22-12-2.84" style="fill:#e0e0e0"></path><path d="M690,306.1a32.15,32.15,0,0,0,24.66,8.39,1.71,1.71,0,0,0,1.13-.4c.62-.68-.13-1.72-.85-2.28-7.25-5.66-16-8-24.94-5.71" style="fill:#e0e0e0"></path><path d="M696.24,303.82A34.38,34.38,0,0,1,727,298.74a24.39,24.39,0,0,1-14.66,6.44,46.59,46.59,0,0,1-16.11-1.36" style="fill:#e0e0e0"></path><path d="M693.77,288.16c-.72-7.23-.25-12.94-.76-20.22,0-.58-.16-1.28-.7-1.48-.76-.3-1.39.63-1.64,1.41A23.15,23.15,0,0,0,693.76,288" style="fill:#e0e0e0"></path><path d="M693.25,289a42.45,42.45,0,0,0,12-11.65c2.37-3.24,4.37-7.12,3.83-11.09a11.44,11.44,0,0,0-8.65,4.29,24.16,24.16,0,0,0-4.41,8.87c-1,3.18-1.63,6.45-2.75,9.58" style="fill:#e0e0e0"></path><path d="M705,285.69a96.57,96.57,0,0,0,29.5-17.39c-3.52-1.42-7.55-.57-11.08.85a34.94,34.94,0,0,0-18.57,16.46" style="fill:#e0e0e0"></path><path d="M696.56,292.92c5.44.6,11,1,16.38.08s10.33-3,15.29-5.08a1.78,1.78,0,0,0,1-.79,1.19,1.19,0,0,0-.37-1.31,3.22,3.22,0,0,0-1.31-.61c-5.39-1.51-11.21-.8-16.52,1a77,77,0,0,0-14.51,6.72" style="fill:#e0e0e0"></path><path d="M665.46,306.35c-3.71-7.5-3.47-16.25-.26-24,2.26,3.44,2.53,7.82,2.12,11.92s-1.66,8.31-1.74,12.43" style="fill:#e0e0e0"></path><path d="M650.62,298.86a33.46,33.46,0,0,0-24.86,10.59c4.63.73,9.4-.47,13.61-2.52A69.88,69.88,0,0,0,651,299.12" style="fill:#e0e0e0"></path><path d="M640.64,295.52c-4.54-.36-8.91-.93-13.27.41a15.92,15.92,0,0,0-10.11,8.58,24.1,24.1,0,0,0,12.44-2.35,71.84,71.84,0,0,0,10.94-6.64" style="fill:#e0e0e0"></path><path d="M655.41,295.68c-4.08-2.68-8.27-5.4-13-6.51s-10.27-.29-13.58,3.29c3.85,2.26,8.52,2.53,13,2.52s9.93-.05,14.13,1.44" style="fill:#e0e0e0"></path><path d="M655.44,295.89c-7-6.85-9.63-19.16-6.82-28.53a43.48,43.48,0,0,1,6.82,28.53" style="fill:#e0e0e0"></path><path d="M674.63,276.47c1.32-3.06,2.24-6.27,3.42-9.38a27,27,0,0,1,4.88-8.66,12.91,12.91,0,0,1,8.65-4.48,34.81,34.81,0,0,1-16.78,22.57" style="fill:#e0e0e0"></path><path d="M671.16,280.52c-2.18-3-4.7-7.07-7.65-9.31s-6.8-3.59-10.41-2.73a24.23,24.23,0,0,0,18.06,12" style="fill:#e0e0e0"></path><path d="M671.85,276.72a51.57,51.57,0,0,1-3.44-11.15,17.4,17.4,0,0,1,1.74-11.34c3.84,7.25,5.07,15,1.9,22.58" style="fill:#e0e0e0"></path><path d="M674.67,254.23c2.17-7.17,8.74-12.46,15.84-14.89a5.88,5.88,0,0,1,2.77-.41,2.39,2.39,0,0,1,2.05,1.71c.26,1.22-.75,2.31-1.7,3.12a53.65,53.65,0,0,1-19,10.47" style="fill:#e0e0e0"></path><path d="M674.74,248.36c.28-4.63.57-9.32,2.07-13.71s4.41-8.5,8.63-10.42c.72,4.68-1.34,9.33-3.83,13.35s-5.49,7.82-7,12.31" style="fill:#e0e0e0"></path><path d="M674.63,251.55c-1.79-5.23-2-11.88-5.11-16.44-2.19-3.18-5.7-5.35-7.59-8.73a13.25,13.25,0,0,0,.45,9.91,28.53,28.53,0,0,0,5.79,8.3c2.32,2.48,4.31,4.34,6.46,7" style="fill:#e0e0e0"></path><path d="M674.67,405.63c-.14,0-.26-34.9-.27-77.95s.09-78,.23-78,.26,34.89.27,78S674.8,405.63,674.67,405.63Z" style="fill:#e0e0e0"></path><path d="M705.17,301.08a7.51,7.51,0,0,1-1.31.49l-3.62,1.22c-3,1-7.22,2.54-11.77,4.4s-8.73,3.5-11.14,5.59a8.3,8.3,0,0,0-2.25,3c-.34.82-.4,1.32-.45,1.31s0-.12,0-.36a5.84,5.84,0,0,1,.25-1,8,8,0,0,1,2.19-3.16,19.5,19.5,0,0,1,4.84-3c1.93-.91,4.08-1.85,6.35-2.78,4.56-1.87,8.77-3.32,11.85-4.28,1.54-.48,2.8-.83,3.67-1.06A8,8,0,0,1,705.17,301.08Z" style="fill:#e0e0e0"></path><path d="M715.17,276.52s-.12.15-.37.4-.67.62-1.12,1.05l-4.18,3.8-13.92,12.39c-5.43,4.83-10.13,9.45-13.38,12.93-1.63,1.74-2.91,3.18-3.79,4.18l-1,1.16c-.23.26-.36.39-.38.38a2.67,2.67,0,0,1,.3-.45c.21-.28.52-.69.94-1.21.83-1,2.08-2.53,3.68-4.3a176.66,176.66,0,0,1,13.3-13.07c5.45-4.82,10.42-9.16,14-12.28l4.29-3.68,1.18-1A2,2,0,0,1,715.17,276.52Z" style="fill:#e0e0e0"></path><path d="M689.72,299.07c-.15-.06,1-2.68,2.12-6s1.68-6.11,1.82-6.09a20.65,20.65,0,0,1-1.34,6.25,41.73,41.73,0,0,1-1.69,4.19A6.66,6.66,0,0,1,689.72,299.07Z" style="fill:#e0e0e0"></path><path d="M674.7,320.2a6.16,6.16,0,0,1-.84-1l-2.14-2.75c-1.81-2.33-4.3-5.54-7.09-9.06s-5.36-6.67-7.21-9l-2.2-2.71a5.63,5.63,0,0,1-.75-1,7.15,7.15,0,0,1,.9.91c.56.61,1.35,1.5,2.32,2.61,1.93,2.23,4.54,5.35,7.34,8.87s5.24,6.78,7,9.16c.87,1.2,1.56,2.17,2,2.85A6.41,6.41,0,0,1,674.7,320.2Z" style="fill:#e0e0e0"></path><path d="M668,311.61a12.19,12.19,0,0,1-2.8-5.24,15.13,15.13,0,0,1-.64-5.29l.23,0c-.1.4-.18.62-.22.61s0-.23,0-.65l.23,0a24.07,24.07,0,0,0,.89,5.15A37.6,37.6,0,0,0,668,311.61Z" style="fill:#e0e0e0"></path><path d="M659.38,300.75a9.24,9.24,0,0,0-2-1.13,13.07,13.07,0,0,0-5.43-.44,33.51,33.51,0,0,0-5.47.89,17.34,17.34,0,0,1-2.25.54,7.93,7.93,0,0,1,2.15-.89,25.14,25.14,0,0,1,5.53-1,11.75,11.75,0,0,1,5.6.61A3.52,3.52,0,0,1,659.38,300.75Z" style="fill:#e0e0e0"></path><path d="M657.33,298.12c0,.08-1.14-.46-3-1.09a30.59,30.59,0,0,0-7.48-1.54,31,31,0,0,0-7.62.39c-1.93.34-3.1.71-3.13.62a3,3,0,0,1,.8-.34,19.58,19.58,0,0,1,2.26-.63,26.73,26.73,0,0,1,15.29,1.16,18.77,18.77,0,0,1,2.14,1A3.08,3.08,0,0,1,657.33,298.12Z" style="fill:#e0e0e0"></path><path d="M674.63,287a64.36,64.36,0,0,1-2.19-7.59,60.45,60.45,0,0,1-1.69-7.72,64,64,0,0,1,2.18,7.59A60,60,0,0,1,674.63,287Z" style="fill:#e0e0e0"></path><path d="M674.77,287a37.35,37.35,0,0,0-2.42-4.55,19.33,19.33,0,0,0-3.57-3.67c0-.06.59.15,1.38.7a11,11,0,0,1,2.6,2.69A10,10,0,0,1,674.77,287Z" style="fill:#e0e0e0"></path><path d="M674.67,387c-.06,0-.16-.84-.55-2.32a33.24,33.24,0,0,0-2.34-6c-2.41-4.92-6.8-11.17-12.37-17.43-2.77-3.16-5.45-6.14-7.72-9a62.73,62.73,0,0,1-5.52-8,38.49,38.49,0,0,1-2.79-5.9c-.25-.73-.44-1.3-.54-1.69a4,4,0,0,1-.15-.61s.3.8.88,2.23a42.43,42.43,0,0,0,2.91,5.79,65.78,65.78,0,0,0,5.57,7.85c2.29,2.82,5,5.79,7.74,8.95,5.59,6.27,10,12.6,12.31,17.61a30.72,30.72,0,0,1,2.21,6.15,14.88,14.88,0,0,1,.3,1.75A3.18,3.18,0,0,1,674.67,387Z" style="fill:#e0e0e0"></path><path d="M702.23,355.9a16,16,0,0,1-1.45.81,31.91,31.91,0,0,0-3.74,2.47,43.46,43.46,0,0,0-4.92,4.49c-1.73,1.83-3.51,3.94-5.33,6.22-3.63,4.55-7,8.58-9,11.8-1,1.59-1.79,2.94-2.28,3.88a16.22,16.22,0,0,1-.79,1.46s0-.15.13-.41.25-.65.48-1.13a36.41,36.41,0,0,1,2.15-4c2-3.3,5.35-7.38,9-11.93,1.82-2.27,3.62-4.4,5.38-6.22a39.72,39.72,0,0,1,5-4.45,26.47,26.47,0,0,1,3.87-2.37c.48-.24.87-.38,1.13-.5S702.22,355.88,702.23,355.9Z" style="fill:#e0e0e0"></path><path d="M702.77,366a22.75,22.75,0,0,1-3.06.44,40.08,40.08,0,0,0-7.24,1.43,21.71,21.71,0,0,0-6.48,3.4c-1.5,1.15-2.2,2.11-2.27,2.05a2.31,2.31,0,0,1,.45-.7,11.58,11.58,0,0,1,1.59-1.63,19.67,19.67,0,0,1,6.56-3.6,33.07,33.07,0,0,1,7.36-1.31A16.68,16.68,0,0,1,702.77,366Z" style="fill:#e0e0e0"></path><path d="M684.61,372.21c-.16-.09,1.22-2.19,2.29-5s1.23-5.35,1.41-5.32a4.78,4.78,0,0,1,0,1.64,17.66,17.66,0,0,1-.89,3.86,18.69,18.69,0,0,1-1.77,3.54C685.06,371.76,684.67,372.25,684.61,372.21Z" style="fill:#e0e0e0"></path><path d="M711.15,328.78a1.79,1.79,0,0,1-.48.26l-1.44.65c-.63.27-1.39.62-2.25,1.07s-1.87.9-2.92,1.53l-1.66.95c-.58.33-1.15.72-1.76,1.11-1.23.74-2.46,1.66-3.77,2.59a65,65,0,0,0-14.52,15c-.9,1.35-1.77,2.61-2.47,3.86-.36.62-.74,1.21-1,1.79s-.6,1.16-.89,1.7c-.59,1.07-1,2.09-1.43,3s-.74,1.65-1,2.29-.44,1.07-.6,1.45a3.1,3.1,0,0,1-.24.5,1.87,1.87,0,0,1,.14-.53l.52-1.5c.22-.65.51-1.43.91-2.32s.8-1.93,1.37-3l.87-1.72c.3-.6.67-1.19,1-1.82.69-1.27,1.56-2.55,2.44-3.91a62.88,62.88,0,0,1,14.63-15.14c1.33-.93,2.58-1.84,3.83-2.58.61-.37,1.19-.76,1.78-1.09l1.69-.92c1.07-.61,2.09-1.05,3-1.48s1.65-.74,2.29-1l1.48-.56A2.73,2.73,0,0,1,711.15,328.78Z" style="fill:#e0e0e0"></path><path d="M689.34,343.4a3.54,3.54,0,0,1,1.2-1.79,7.57,7.57,0,0,1,4.83-1.85,13.15,13.15,0,0,1,5.09,1,7.38,7.38,0,0,1,1.92.93,11.56,11.56,0,0,1-2-.59,15.42,15.42,0,0,0-5-.83,7.88,7.88,0,0,0-4.62,1.62A14.33,14.33,0,0,0,689.34,343.4Z" style="fill:#e0e0e0"></path><path d="M686.08,346.76a18.34,18.34,0,0,0,1.37-4.46,18.06,18.06,0,0,0-.31-4.66c.06,0,.33.45.57,1.3a9,9,0,0,1,.24,3.42,9.14,9.14,0,0,1-1,3.27C686.51,346.4,686.13,346.8,686.08,346.76Z" style="fill:#e0e0e0"></path><path d="M650.56,392c.75,13.34,4.77,26.9,11,40.62H688.4c5.9-13.58,9.64-27.13,10.3-40.62Z" style="fill:#e0e0e0"></path><path d="M694.34,413.61c0,.14-8.85.26-19.76.26s-19.78-.12-19.78-.26,8.85-.25,19.78-.25S694.34,413.47,694.34,413.61Z" style="fill:#fafafa"></path><path d="M693.74,418.45c0,.14-8.29.25-18.53.25s-18.53-.11-18.53-.25,8.29-.26,18.53-.26S693.74,418.31,693.74,418.45Z" style="fill:#fafafa"></path><path d="M662,400.79a76.76,76.76,0,0,1,0,12.38,73.81,73.81,0,0,1,0-12.38Z" style="fill:#fafafa"></path><path d="M676.35,400.79a82.3,82.3,0,0,1,0,12.82,82.3,82.3,0,0,1,0-12.82Z" style="fill:#fafafa"></path><path d="M689.88,400.68a85.67,85.67,0,0,1,0,13.08,82.38,82.38,0,0,1,0-13.08Z" style="fill:#fafafa"></path><path d="M697.85,400.79c0,.14-10.38.25-23.19.25s-23.19-.11-23.19-.25,10.38-.26,23.19-.26S697.85,400.65,697.85,400.79Z" style="fill:#fafafa"></path><path d="M548.24,92h2.22l4.83-6.73V80.83s3.42-.21,3,5.57,0,4.32,0,4.32,7.27,0,7.87.66c.44.45.64,7.67.72,11.59a4.24,4.24,0,0,1-3,4.27,3.47,3.47,0,0,1-.78.1c-1.81,0-11.07-1.47-11.07-1.47h-3.83Z" style="fill:#e0e0e0"></path><polygon points="541.91 90.77 543.27 105.91 547.06 105.91 547.06 91.07 541.91 90.77" style="fill:#e0e0e0"></polygon><path d="M554.42,65.18a3.65,3.65,0,0,1,.54,0l1.6,0c.35,0,.74,0,1.18,0l1.4.2,1.65.24,1.83.45a29.94,29.94,0,0,1,8.9,3.88,31.79,31.79,0,0,1,9.21,9A32.22,32.22,0,0,1,586,93.65,34.1,34.1,0,0,1,586,98c0,.73,0,1.47-.15,2.2l-.33,2.22a31.46,31.46,0,0,1-3,8.76,33.72,33.72,0,0,1-5.72,7.87,33.2,33.2,0,0,1-8.24,5.92A29.93,29.93,0,0,1,558.56,128a18.4,18.4,0,0,1-2.68.23,24.33,24.33,0,0,1-2.7.05,32.25,32.25,0,0,1-5.43-.68,31.67,31.67,0,0,1-10.8-4.55l.33,0-11,4.42-.66.26.19-.68c1.11-4,2.19-8,3.23-11.76l.06.29a31.41,31.41,0,0,1-5.87-13.44,28.7,28.7,0,0,1-.43-6.88,22.63,22.63,0,0,1,.31-3.31c.09-.54.17-1.07.25-1.61s.26-1,.39-1.55A31.45,31.45,0,0,1,536,70.92a29.81,29.81,0,0,1,7.31-3.85l1.64-.59,1.56-.4,1.43-.35c.46-.09.9-.14,1.32-.2.83-.11,1.56-.25,2.2-.28l1.62-.06,1,0h.33a1.23,1.23,0,0,1-.33,0l-1,.08-1.6.11c-.64,0-1.36.21-2.19.33a31.28,31.28,0,0,0-25,23.2c-.12.51-.28,1-.37,1.54l-.24,1.58a21.56,21.56,0,0,0-.29,3.24,28.13,28.13,0,0,0,.45,6.75,30.83,30.83,0,0,0,5.79,13.15l.1.13,0,.16c-1,3.8-2.11,7.73-3.21,11.77l-.46-.42,11-4.42.18-.07.15.1a31,31,0,0,0,10.56,4.44,31.75,31.75,0,0,0,5.3.67,23.4,23.4,0,0,0,2.65,0,19,19,0,0,0,2.62-.22,29.5,29.5,0,0,0,9.83-3,32.66,32.66,0,0,0,8.07-5.78,33.4,33.4,0,0,0,5.62-7.69,31.14,31.14,0,0,0,3-8.57c.12-.73.23-1.46.34-2.17s.09-1.45.15-2.16a31.33,31.33,0,0,0-.07-4.23,31.08,31.08,0,0,0-14.05-23.32,30,30,0,0,0-8.76-3.95L560.74,66l-1.63-.27-1.39-.23c-.43,0-.82-.06-1.17-.09L555,65.25A2.07,2.07,0,0,1,554.42,65.18Z" style="fill:#e0e0e0"></path></g><g id="freepik--Floor--inject-153"><path d="M704.54,432.48c0,.14-147.55.26-329.52.26s-329.56-.12-329.56-.26S193,432.22,375,432.22,704.54,432.33,704.54,432.48Z" style="fill:#263238"></path></g><g id="freepik--Car--inject-153"><rect x="91.32" y="294.04" width="566.95" height="76.64" style="fill:#FF6600"></rect><g style="opacity:0.4"><rect x="91.32" y="294.04" width="566.95" height="76.64"></rect></g><path d="M682.14,287.58a47,47,0,0,0-38.64-30.51l-127.28-15-46.46-33.16A190.52,190.52,0,0,0,359.09,173.5H57a5.22,5.22,0,0,0-2,10l21.78,9.31a40.05,40.05,0,0,0-2.19,4.28l-12.3,28.5a55.52,55.52,0,0,0-4.54,22,12.46,12.46,0,0,0-12.46,12.45v49.65l-12.9,5.76a17.25,17.25,0,0,0-10.2,15.73v12.88A21,21,0,0,0,39.09,364.7l68.29,13.66v-6.17a65.92,65.92,0,0,1,65.92-65.92h0a65.92,65.92,0,0,1,65.92,65.92v6.17H513.58v-6.17a65.92,65.92,0,0,1,65.92-65.92h0a65.92,65.92,0,0,1,65.92,65.92v6.17h33.69a16.46,16.46,0,0,0,16.46-16.47V324.24Z" style="fill:#FF6600"></path><path d="M74.58,197.11l-12.3,28.5a55.52,55.52,0,0,0-4.54,22h17l16.6-48.55-14.55-6.23A40.05,40.05,0,0,0,74.58,197.11Z" style="fill:#455a64"></path><path d="M682.14,287.58a46.68,46.68,0,0,0-3.86-8h-18l16.33,37.9,19,11v-4.2Z" style="fill:#FF6600"></path><g style="opacity:0.2"><path d="M682.14,287.58a46.68,46.68,0,0,0-3.86-8h-18l16.33,37.9,19,11v-4.2Z"></path></g><path d="M46.59,292.94h9.35a26.24,26.24,0,0,0,15-4.68l15.56-10.8a10.15,10.15,0,0,0,4.38-8.36h0a10.18,10.18,0,0,0-10.18-10.18h-34a1.49,1.49,0,0,0-1.49,1.49l0,31A1.49,1.49,0,0,0,46.59,292.94Z" style="fill:#ebebeb"></path><path d="M696.55,326.73l-5.42-3.13h3.31a2,2,0,0,0,0-3.93H684.31l-3.41-2h11.56a2,2,0,0,0,0-3.94H677.11l-.85-2h13.9a2,2,0,1,0,0-3.93H674.57l-.85-2h14.51a2,2,0,1,0,0-3.93H672l-.85-2H686a2,2,0,0,0,0-3.93H669.48l-.84-2h15.07a2,2,0,1,0,0-3.93H666.94l-.85-2h15.53a2,2,0,0,0,0-3.94H664.4l-1.18-2.72h15.06a2,2,0,1,0,0-3.93h-18a2,2,0,0,0-1.81,2.74l5.41,12.55h0l2.54,5.9h0l2.54,5.9h0l2.54,5.9h0l2.54,5.89h0l.75,1.74a2.06,2.06,0,0,0,.82.93l19,11a2,2,0,0,0,2-3.41Z" style="fill:#FF6600"></path><g style="opacity:0.2"><path d="M696.55,326.73l-5.42-3.13h3.31a2,2,0,0,0,0-3.93H684.31l-3.41-2h11.56a2,2,0,0,0,0-3.94H677.11l-.85-2h13.9a2,2,0,1,0,0-3.93H674.57l-.85-2h14.51a2,2,0,1,0,0-3.93H672l-.85-2H686a2,2,0,0,0,0-3.93H669.48l-.84-2h15.07a2,2,0,1,0,0-3.93H666.94l-.85-2h15.53a2,2,0,0,0,0-3.94H664.4l-1.18-2.72h15.06a2,2,0,1,0,0-3.93h-18a2,2,0,0,0-1.81,2.74l5.41,12.55h0l2.54,5.9h0l2.54,5.9h0l2.54,5.9h0l2.54,5.89h0l.75,1.74a2.06,2.06,0,0,0,.82.93l19,11a2,2,0,0,0,2-3.41Z" style="fill:#fff"></path></g><circle cx="174.78" cy="374.92" r="57.45" transform="translate(-5.58 2.65) rotate(-0.86)" style="fill:#263238"></circle><path d="M117.35,373.94a.76.76,0,0,0,0,.15,57.45,57.45,0,1,0,114.88,1.66.75.75,0,0,0,0-.15Z" style="fill:#263238"></path><path d="M134.45,374.34a40.33,40.33,0,1,0,40.91-39.75A40.33,40.33,0,0,0,134.45,374.34Z" style="fill:#fafafa"></path><path d="M175.36,334.59a40.33,40.33,0,0,0-40.91,39.75l80.66,1.16A40.33,40.33,0,0,0,175.36,334.59Z" style="fill:#e0e0e0"></path><path d="M150.21,374.56a24.57,24.57,0,1,0,24.92-24.21A24.57,24.57,0,0,0,150.21,374.56Z" style="fill:#263238"></path><circle cx="579.77" cy="374.92" r="57.45" transform="translate(-30.65 52.29) rotate(-5.03)" style="fill:#263238"></circle><path d="M522.34,373.94c0,.05,0,.1,0,.15a57.45,57.45,0,0,0,114.89,1.66c0-.05,0-.1,0-.15Z" style="fill:#263238"></path><path d="M539.44,374.34a40.33,40.33,0,1,0,40.91-39.75A40.34,40.34,0,0,0,539.44,374.34Z" style="fill:#fafafa"></path><path d="M580.35,334.59a40.33,40.33,0,0,0-40.91,39.75l80.66,1.16A40.33,40.33,0,0,0,580.35,334.59Z" style="fill:#e0e0e0"></path><path d="M555.21,374.56a24.57,24.57,0,1,0,24.92-24.21A24.56,24.56,0,0,0,555.21,374.56Z" style="fill:#263238"></path><path d="M516.22,242.1l-46.46-33.16a190.51,190.51,0,0,0-43.3-23.1H411.14l92.94,61.77Z" style="fill:#455a64"></path><path d="M653.31,275.93h22.58a55,55,0,0,0-11.62-11.4C659.11,262.87,652.81,269.34,653.31,275.93Z" style="fill:#fafafa"></path><path d="M193.1,249.38H492L406.64,190.5a36.46,36.46,0,0,0-21.57-7.06H199.8s-66.56-1.63-81.17,18.45Z" style="fill:#263238"></path><path d="M171.52,249.52c-1.1,0-2.18,0-3.26-.1a52.32,52.32,0,0,1-37.7-19.5l-12.22-15.16a10,10,0,0,1,4.1-15.53l10.5-4.63A112.32,112.32,0,0,1,172,187.15h34.77l-11.14,62.37Zm48.45,0,11.11-62.37h102.4v62.37Zm144.64,0-12-62.37H388a25.19,25.19,0,0,1,15.07,5l76.76,57.36Z" style="fill:#455a64"></path><path d="M352.37,363a.94.94,0,0,1,0-.29c0-.23,0-.51,0-.87v-3.33c0-2.93.05-7.11.09-12.25.12-10.38.29-24.65.47-40.42.12-7.89.23-15.41.33-22.25,0-3.42.11-6.67.16-9.71a54.17,54.17,0,0,0-.29-8.42,59,59,0,0,0-2.78-11.88c-.47-1.36-.87-2.41-1.15-3.12l-.33-.8a1.27,1.27,0,0,1-.1-.28,1.5,1.5,0,0,1,.15.26c.09.17.21.44.37.78.32.7.75,1.74,1.26,3.09a57,57,0,0,1,2.94,11.9,53.34,53.34,0,0,1,.36,8.47c0,3.05-.07,6.3-.11,9.71-.09,6.85-.19,14.36-.29,22.26-.24,15.76-.46,30-.63,40.41-.1,5.14-.19,9.32-.25,12.25q-.06,2.13-.09,3.33c0,.36,0,.64,0,.87A1.11,1.11,0,0,1,352.37,363Z" style="fill:#263238"></path><path d="M482.08,253.87a.9.9,0,0,1,.23.16c.18.13.4.3.67.52l.49.39.51.55a11.68,11.68,0,0,1,1.21,1.43,38.28,38.28,0,0,1,5.18,10.72c.81,2.38,1.56,5,2.23,7.93.34,1.44.64,2.94.92,4.5a22.27,22.27,0,0,1,.37,4.87c0,6.65-.21,14-.4,21.63-.4,15.34-.86,29.22-1.23,39.27-.19,5-.35,9.05-.46,11.9-.07,1.37-.12,2.46-.16,3.23l-.05.84a1.36,1.36,0,0,1,0,.29,1.64,1.64,0,0,1,0-.29c0-.22,0-.49,0-.84,0-.78,0-1.86,0-3.24.08-2.85.18-6.9.3-11.9.28-10.08.66-23.95,1.08-39.28.19-7.66.4-15,.44-21.61a22.31,22.31,0,0,0-.34-4.8c-.27-1.54-.56-3-.89-4.48-.65-2.87-1.38-5.52-2.15-7.91A39.64,39.64,0,0,0,485,257,18.74,18.74,0,0,0,482.08,253.87Z" style="fill:#263238"></path><path d="M491.94,251.84h0a10.26,10.26,0,0,0-5.24-9l-13.45-7.56a25.74,25.74,0,0,0-12.57-3.28h0a25.64,25.64,0,0,0-8,1.27,14.6,14.6,0,0,0-9.81,13.4h0a14.83,14.83,0,0,0,14.82,15.39h24A10.27,10.27,0,0,0,491.94,251.84Z" style="fill:#FF6600"></path><path d="M491.94,251.84s0,.46-.16,1.3a10.25,10.25,0,0,1-1.18,3.52,10.48,10.48,0,0,1-4.12,4.06,10.18,10.18,0,0,1-3.46,1.09c-1.27.15-2.68.06-4.14.08l-20.53-.07a15.67,15.67,0,0,1-5.71-.94,14.48,14.48,0,0,1-9.4-14.77,14.54,14.54,0,0,1,6.06-10.74,15.41,15.41,0,0,1,5.56-2.35,25.89,25.89,0,0,1,5.81-.69,25.47,25.47,0,0,1,10.53,2.26c1.55.69,3,1.57,4.37,2.33l4,2.22,6.9,3.83A10.35,10.35,0,0,1,490.6,247a10.5,10.5,0,0,1,1.19,3.51c.13.85.11,1.3.15,1.3a6.5,6.5,0,0,0,0-1.31,10,10,0,0,0-1.11-3.61,10.38,10.38,0,0,0-4.16-4.26l-6.85-3.9-4-2.26c-1.4-.77-2.8-1.66-4.39-2.38a25.91,25.91,0,0,0-16.7-1.68,16.11,16.11,0,0,0-5.77,2.42,15.11,15.11,0,0,0-6.33,11.2,15.43,15.43,0,0,0,.94,6.62,15.23,15.23,0,0,0,8.87,8.76,15.87,15.87,0,0,0,5.92.95l20.53-.06a40.79,40.79,0,0,0,4.19-.13,10.22,10.22,0,0,0,3.57-1.18,10.68,10.68,0,0,0,4.18-4.25,9.89,9.89,0,0,0,1.09-3.61A7.33,7.33,0,0,0,491.94,251.84Z" style="fill:#263238"></path><path d="M454.78,237.71c.05,0,.36-.47,1.16-1.12a7.93,7.93,0,0,1,4-1.6,17.4,17.4,0,0,1,6.4.69,50.33,50.33,0,0,1,7.55,2.57,49.51,49.51,0,0,1,12.29,7.65c2.86,2.39,4.36,4.16,4.45,4.08a7.25,7.25,0,0,0-1-1.28,38.42,38.42,0,0,0-3.15-3.14,45.59,45.59,0,0,0-12.33-7.88,46.83,46.83,0,0,0-7.66-2.56,17.24,17.24,0,0,0-6.6-.57,7.8,7.8,0,0,0-4.06,1.86,5.06,5.06,0,0,0-.8.92A1.37,1.37,0,0,0,454.78,237.71Z" style="fill:#fff"></path><path d="M258.46,376.68s0-.24,0-.71.06-1.18.11-2.08.15-2,.16-3.37-.05-2.88-.08-4.61-.32-3.65-.49-5.75c-.1-1.05-.34-2.13-.51-3.26s-.34-2.31-.63-3.51a88.33,88.33,0,0,0-5.15-15.88,85.18,85.18,0,0,0-10.34-17.37A81.71,81.71,0,0,0,225,303.93a77.89,77.89,0,0,0-22.83-11.51A90.84,90.84,0,0,0,175,288.31a93.82,93.82,0,0,0-27.15,4.29,85.1,85.1,0,0,0-23,11.27,93,93,0,0,0-17.27,15.48,100.89,100.89,0,0,0-11.69,16.52A111,111,0,0,0,89,351.07c-.44,1.15-.76,2.3-1.13,3.38s-.72,2.13-1,3.15c-.51,2-1,3.9-1.42,5.6l-.9,4.52c-.24,1.31-.36,2.44-.5,3.34l-.3,2.06c-.07.46-.12.7-.12.7s0-.24.07-.71l.25-2.06c.12-.91.23-2,.45-3.36s.53-2.83.86-4.54.87-3.56,1.37-5.61c.25-1,.63-2.07,1-3.17s.68-2.24,1.11-3.4a108.69,108.69,0,0,1,6.9-15.28,101.26,101.26,0,0,1,11.68-16.63,93.59,93.59,0,0,1,17.33-15.59,85.41,85.41,0,0,1,23.09-11.36,94.57,94.57,0,0,1,27.3-4.32,91.29,91.29,0,0,1,27.32,4.14,78.42,78.42,0,0,1,22.95,11.61,82.08,82.08,0,0,1,16.61,16.33,85.62,85.62,0,0,1,10.33,17.49,88.21,88.21,0,0,1,5.09,16c.29,1.2.41,2.4.62,3.52s.4,2.22.49,3.28c.15,2.11.39,4,.44,5.77s0,3.28,0,4.62-.16,2.46-.21,3.38-.12,1.59-.16,2.07S258.46,376.68,258.46,376.68Z" style="fill:#263238"></path><path d="M199.68,291.37s-.12-.13-.3-.39-.44-.72-.74-1.19c-.63-1-1.53-2.54-2.59-4.44a73.94,73.94,0,0,1-3.44-6.82,11.93,11.93,0,0,1-.7-2.14,2.8,2.8,0,0,1,.07-1.22c.09-.38.21-.75.32-1.13.5-1.49,1.07-3,1.69-4.54,2.47-6.15,4.94-11.61,6.73-15.56.91-2,1.65-3.56,2.18-4.65.24-.5.45-.92.62-1.26a1.57,1.57,0,0,1,.25-.42,2.15,2.15,0,0,1-.16.47l-.53,1.29-2,4.72c-1.71,4-4.12,9.47-6.59,15.6-.61,1.53-1.19,3-1.68,4.51a4.71,4.71,0,0,0-.38,2.12,10.43,10.43,0,0,0,.65,2c1.1,2.63,2.31,4.91,3.32,6.83l2.44,4.51.66,1.23A2.66,2.66,0,0,1,199.68,291.37Z" style="fill:#263238"></path><path d="M116.55,310.61c0,.15-16.08.19-35.91.1s-35.92-.28-35.92-.42,16.08-.19,35.92-.1S116.55,310.47,116.55,310.61Z" style="fill:#263238"></path><path d="M491.55,362.1c0,.14-52.17.26-116.51.26s-116.51-.13-116.51-.27,52.15-.26,116.51-.26S491.55,362,491.55,362.1Z" style="fill:#263238"></path><path d="M695.55,362.72c0,.15-8,.26-17.84.26s-17.85-.11-17.85-.26,8-.26,17.85-.26S695.55,362.58,695.55,362.72Z" style="fill:#263238"></path><path d="M651.43,268.55H651l-1.11-.08-4.3-.35c-3.74-.3-9.13-.8-15.8-1.46-13.33-1.33-31.72-3.41-52-6.24s-38.5-5.87-51.68-8.26c-6.59-1.19-11.92-2.19-15.59-2.92l-4.23-.85-1.1-.23-.37-.1a2.18,2.18,0,0,1,.38,0l1.11.18,4.25.75,15.61,2.76c13.19,2.29,31.46,5.27,51.7,8.1s38.6,5,51.92,6.39l15.77,1.63,4.29.45,1.12.12Z" style="fill:#263238"></path><path d="M391.75,274.83s.29,0,.81-.12a5.61,5.61,0,0,0,2.13-.85,5.42,5.42,0,0,0,2.17-2.82,6,6,0,0,0,.28-2.23,5.52,5.52,0,0,0-.63-2.42,5.35,5.35,0,0,0-4.67-2.84l-6.84,0-15.68,0a5.32,5.32,0,0,0-5.27,4.71,6,6,0,0,0,.65,3.58,5.39,5.39,0,0,0,2.6,2.31,8.33,8.33,0,0,0,3.37.41H374l6,0,8.64.09,2.34,0a5.2,5.2,0,0,1,.82.05,4,4,0,0,1-.82.05l-2.34.05L380,275l-6,0h-3.32c-.58,0-1.13,0-1.75,0a6,6,0,0,1-1.81-.41,5.88,5.88,0,0,1-2.85-2.51,6.43,6.43,0,0,1-.72-3.89,5.82,5.82,0,0,1,5.78-5.18l15.68,0,6.84,0a5.76,5.76,0,0,1,5,3.11,5.85,5.85,0,0,1,.64,2.58,6.38,6.38,0,0,1-.34,2.34,5.61,5.61,0,0,1-2.34,2.9,5.45,5.45,0,0,1-2.23.78A3.22,3.22,0,0,1,391.75,274.83Z" style="fill:#263238"></path><path d="M389.83,261.81a73.2,73.2,0,0,1-8.89.27,73.2,73.2,0,0,1-8.89-.27,77.18,77.18,0,0,1,8.89-.26A77.18,77.18,0,0,1,389.83,261.81Z" style="fill:#fff"></path><path d="M244,275.74s.29,0,.81-.12a5.45,5.45,0,0,0,2.13-.85,5.37,5.37,0,0,0,2.17-2.82,5.92,5.92,0,0,0,.28-2.23,5.52,5.52,0,0,0-.63-2.42,5.39,5.39,0,0,0-4.67-2.84l-6.84,0-15.68,0a5.32,5.32,0,0,0-5.27,4.71,6,6,0,0,0,.65,3.58,5.39,5.39,0,0,0,2.6,2.31,8.16,8.16,0,0,0,3.37.41h3.32l6,0,8.64.08,2.34.05a5.2,5.2,0,0,1,.82.05,4.35,4.35,0,0,1-.82.06l-2.34.05-8.64.08-6,0-3.32,0c-.58,0-1.13,0-1.75,0a5.73,5.73,0,0,1-1.81-.41,5.83,5.83,0,0,1-2.85-2.51,6.42,6.42,0,0,1-.72-3.88,5.81,5.81,0,0,1,5.78-5.19l15.68,0,6.85,0a5.75,5.75,0,0,1,5,3.11,5.85,5.85,0,0,1,.64,2.58,6.38,6.38,0,0,1-.34,2.34,5.61,5.61,0,0,1-2.34,2.9,5.41,5.41,0,0,1-2.22.78A3.29,3.29,0,0,1,244,275.74Z" style="fill:#263238"></path><path d="M242.1,262.72a73.2,73.2,0,0,1-8.89.27,73.2,73.2,0,0,1-8.89-.27,77.18,77.18,0,0,1,8.89-.26A77.18,77.18,0,0,1,242.1,262.72Z" style="fill:#fff"></path><path d="M660.75,378.54s0-.24,0-.71,0-1.18,0-2.08,0-2,0-3.37-.2-2.87-.32-4.59-.48-3.63-.75-5.72c-.14-1-.42-2.11-.63-3.23s-.44-2.29-.76-3.47a95.19,95.19,0,0,0-5.56-15.73,90.21,90.21,0,0,0-10.56-17.21,84.56,84.56,0,0,0-16.56-16.15,78.9,78.9,0,0,0-22.72-11.65,87.68,87.68,0,0,0-54.18,0,79.19,79.19,0,0,0-22.73,11.64,84.84,84.84,0,0,0-16.56,16.15,90.27,90.27,0,0,0-10.56,17.22,95.1,95.1,0,0,0-5.56,15.72c-.32,1.19-.51,2.36-.76,3.48s-.49,2.19-.63,3.23c-.27,2.09-.6,4-.75,5.71s-.22,3.26-.32,4.59,0,2.47,0,3.38v2.07c0,.47,0,.71,0,.71s0-.24,0-.7,0-1.18,0-2.08-.06-2.05,0-3.38.17-2.88.27-4.61.45-3.63.7-5.73c.13-1,.41-2.12.62-3.25s.42-2.3.74-3.49a95.84,95.84,0,0,1,5.5-15.81A90.66,90.66,0,0,1,509,322.16a84.91,84.91,0,0,1,16.62-16.28,79.59,79.59,0,0,1,22.85-11.74,88,88,0,0,1,54.5,0,79,79,0,0,1,22.84,11.74,84.59,84.59,0,0,1,16.62,16.27A90.39,90.39,0,0,1,653,339.48a95.11,95.11,0,0,1,5.51,15.82c.32,1.19.5,2.37.74,3.49s.48,2.2.61,3.24c.26,2.1.57,4,.71,5.74s.19,3.27.27,4.61,0,2.46,0,3.37,0,1.6,0,2.08S660.75,378.54,660.75,378.54Z" style="fill:#263238"></path><path d="M224.62,183.44a2.19,2.19,0,0,1-.45,0l-1.31,0-5.06,0H199.18l-61.43-.2-33.83-.17c-10.39-.08-19.76,0-27.62-.46a136.38,136.38,0,0,1-18.5-2.13c-2.16-.41-3.83-.79-4.95-1.08l-1.27-.33a3,3,0,0,1-.43-.13l.44.08,1.29.28c1.12.26,2.8.6,5,1a145.17,145.17,0,0,0,18.48,1.95c7.85.41,17.21.3,27.6.35l33.83.13,61.43.35,18.62.17,5.06.07,1.31,0C224.47,183.42,224.62,183.44,224.62,183.44Z" style="fill:#263238"></path><path d="M295.51,209.92c.07.12-10.82,6-24.31,13s-24.49,12.69-24.55,12.56,10.81-6,24.31-13S295.45,209.79,295.51,209.92Z" style="fill:#fafafa"></path><path d="M318.3,205.35a2.83,2.83,0,0,1-.53.32l-1.55.84-5.73,3c-4.84,2.54-11.51,6.06-18.83,10s-13.9,7.68-18.65,10.37l-5.63,3.18-1.54.85a2.25,2.25,0,0,1-.56.26,3.26,3.26,0,0,1,.5-.35l1.49-.93c1.31-.81,3.2-1.94,5.56-3.33,4.7-2.77,11.26-6.52,18.59-10.51s14-7.46,18.91-9.91c2.44-1.22,4.42-2.2,5.8-2.85l1.6-.75A2.15,2.15,0,0,1,318.3,205.35Z" style="fill:#fafafa"></path><path d="M417.15,213.64a1.72,1.72,0,0,1-.43.24l-1.25.58-4.64,2.07c-3.92,1.75-9.31,4.21-15.21,7.06s-11.17,5.54-15,7.52l-4.51,2.35-1.24.62a1.93,1.93,0,0,1-.44.19s.12-.11.39-.28l1.19-.71c1-.61,2.55-1.46,4.43-2.49,3.77-2.06,9-4.82,14.93-7.67s11.33-5.26,15.29-6.93c2-.83,3.59-1.49,4.71-1.92l1.29-.49A1.93,1.93,0,0,1,417.15,213.64Z" style="fill:#fafafa"></path><path d="M402.92,212.25a23.75,23.75,0,0,1-2.85,1.46c-1.77.87-4.21,2.1-6.84,3.57s-5,2.9-6.63,3.95a24.3,24.3,0,0,1-2.75,1.66,16.36,16.36,0,0,1,2.54-2c1.63-1.14,3.94-2.63,6.58-4.1a77,77,0,0,1,6.95-3.45A15.81,15.81,0,0,1,402.92,212.25Z" style="fill:#fafafa"></path><path d="M179.74,211.68c.06.14-7.15,3-16.09,6.47s-16.23,6.11-16.28,6,7.15-3,16.09-6.46S179.69,211.55,179.74,211.68Z" style="fill:#fafafa"></path><path d="M170.47,208.69c.05.13-6.17,2.53-13.88,5.34s-14,5-14.07,4.86,6.17-2.53,13.89-5.35S170.42,208.55,170.47,208.69Z" style="fill:#fafafa"></path><path d="M592,287.33a4.6,4.6,0,0,1-.82-.05l-2.33-.23-1.68-.18c-.62-.05-1.29-.08-2-.12-1.45-.07-3.09-.23-4.9-.2l-2.86,0c-1,0-2,.07-3.09.11-2.13,0-4.4.3-6.8.52a99.52,99.52,0,0,0-30,8.24c-2.17,1-4.25,2-6.11,3-.94.52-1.86,1-2.72,1.49l-2.44,1.47c-1.57.91-2.9,1.88-4.11,2.67-.6.41-1.16.78-1.66,1.14s-.95.7-1.36,1l-1.88,1.39a4.16,4.16,0,0,1-.68.46,4.4,4.4,0,0,1,.61-.54l1.83-1.47,1.33-1.05c.5-.38,1-.75,1.64-1.17,1.2-.83,2.52-1.82,4.09-2.75l2.43-1.51c.85-.52,1.78-1,2.71-1.52,1.86-1.07,4-2,6.12-3.08a97,97,0,0,1,30.16-8.29c2.41-.21,4.69-.45,6.84-.47,1.07,0,2.1-.1,3.1-.08l2.86.05c1.83,0,3.47.18,4.92.28.72.06,1.39.09,2,.16l1.68.23,2.33.33A4.35,4.35,0,0,1,592,287.33Z" style="fill:#fafafa"></path><path d="M177.57,284.65a3.26,3.26,0,0,1-.65.05l-1.85,0c-.8,0-1.78,0-2.92.08s-2.44.09-3.86.25l-2.25.2c-.77.08-1.58.21-2.42.31-1.67.2-3.44.55-5.31.87a111.32,111.32,0,0,0-11.93,3.11,121.45,121.45,0,0,0-11.5,4.46c-3.45,1.57-6.5,3.11-9,4.52-1.27.67-2.37,1.35-3.36,1.92s-1.83,1.07-2.51,1.5l-1.58,1a3.55,3.55,0,0,1-.57.31,2.59,2.59,0,0,1,.51-.4c.4-.26.9-.61,1.53-1s1.49-1,2.47-1.58,2.07-1.3,3.33-2c2.49-1.45,5.54-3,9-4.64A115,115,0,0,1,146.22,289a104.66,104.66,0,0,1,12-3.08c1.88-.31,3.66-.65,5.35-.82.84-.1,1.65-.22,2.43-.29l2.26-.17c1.43-.14,2.74-.14,3.88-.17s2.13,0,2.93,0l1.86.07A2.69,2.69,0,0,1,177.57,284.65Z" style="fill:#fafafa"></path><rect x="234.5" y="190.59" width="89.64" height="55.49" transform="translate(-8.77 11.72) rotate(-2.37)" style="fill:#e0e0e0"></rect><path d="M235.2,248.43,232.87,192l90.56-3.74,2.33,56.44ZM233.91,193l2.25,54.44,88.56-3.66-2.25-54.44Z" style="fill:#263238"></path><path d="M244,209.15,248,209l.13,2.93-4.06.17.35,8.46-3.14.13-.85-20.49,8.31-.35.12,2.93-5.17.21Z" style="fill:#FF6600"></path><path d="M250.23,204.7c-.13-3.28,1.48-5.22,4.56-5.35s4.85,1.67,5,5l.44,10.66c.13,3.28-1.48,5.22-4.56,5.35s-4.85-1.68-5-5Zm3.59,10.73c.07,1.46.72,2,1.72,1.95s1.6-.62,1.54-2.09l-.46-11.06c-.06-1.47-.71-2-1.71-1.95s-1.6.62-1.54,2.08Z" style="fill:#FF6600"></path><path d="M269,219.52a6.56,6.56,0,0,1-.39-2.51l-.13-3.22c-.08-1.9-.74-2.57-2.17-2.52l-1.08,0,.34,8.34-3.14.13-.85-20.49,4.75-.19c3.25-.14,4.72,1.35,4.85,4.52l.06,1.61c.09,2.1-.51,3.51-1.88,4.24,1.6.61,2.18,2.14,2.26,4.27l.13,3.16a6.28,6.28,0,0,0,.45,2.48Zm-4.15-17.42.26,6.29,1.23,0c1.17-.05,1.86-.6,1.79-2.24l-.08-2c-.06-1.47-.58-2.09-1.69-2Z" style="fill:#FF6600"></path><path d="M281.74,198.24c3.05-.13,4.7,1.68,4.84,5l0,.64-3,.12,0-.85c-.06-1.46-.66-2-1.66-2s-1.55.62-1.49,2.08c.18,4.22,6.35,4.75,6.6,10.61.13,3.28-1.39,5.22-4.48,5.34s-4.76-1.67-4.9-4.95l-.05-1.26,3-.13.06,1.47c.06,1.46.72,2,1.72,1.92s1.6-.59,1.54-2.06c-.17-4.21-6.35-4.75-6.59-10.6C277.19,200.3,278.68,198.36,281.74,198.24Z" style="fill:#FF6600"></path><path d="M299.22,218.27l-3.17.13-.7-3.69-3.85.16-.39,3.74-2.89.12,2.35-20.63,4.6-.19Zm-7.44-6.2,3-.13-1.94-10.29Z" style="fill:#FF6600"></path><path d="M299.83,197.72l3.14-.13.73,17.57,5.17-.22.12,2.93-8.31.34Z" style="fill:#FF6600"></path><path d="M313,205.83l4.31-.18.12,2.93-4.31.17.25,6,5.42-.22.13,2.93-8.58.35-.84-20.49,8.57-.35.12,2.92-5.43.23Z" style="fill:#FF6600"></path><rect x="240.64" y="225.16" width="78.55" height="12.83" rx="5.6" transform="translate(-9.32 11.75) rotate(-2.37)" style="fill:#fafafa"></rect><path d="M255.92,236.5a1,1,0,0,1,.16-.3,4.21,4.21,0,0,1,.63-.73,5.73,5.73,0,0,1,3.2-1.49,5.15,5.15,0,0,1,2.47.28,2.93,2.93,0,0,1,1.91,2.15,3.3,3.3,0,0,1-1.05,3,3.91,3.91,0,0,1-3.31.78,5,5,0,0,1-2.87-1.82,6.93,6.93,0,0,1-1.33-2.85,7.6,7.6,0,0,1,.65-5.19,7.52,7.52,0,0,1,2.33-2.66,6.14,6.14,0,0,1,.83-.49,1.29,1.29,0,0,1,.32-.11s-.39.25-1,.76a7.78,7.78,0,0,0-2.12,2.66,7.45,7.45,0,0,0-.52,4.92,6.79,6.79,0,0,0,1.27,2.64,4.48,4.48,0,0,0,2.57,1.63,3.39,3.39,0,0,0,2.87-.66,2.79,2.79,0,0,0,.91-2.53,2.49,2.49,0,0,0-1.59-1.83,4.83,4.83,0,0,0-2.27-.31,5.78,5.78,0,0,0-3.11,1.27C256.21,236.14,256,236.53,255.92,236.5Z" style="fill:#263238"></path><path d="M267.28,238.4s.38.14,1.07.22a4.27,4.27,0,0,0,2.78-.71,3.72,3.72,0,0,0,1.25-1.5,3.33,3.33,0,0,0,.16-2.19,2.56,2.56,0,0,0-1.62-1.68,4.21,4.21,0,0,0-2.63,0,12.39,12.39,0,0,0-2.35,1l-.27-.43a4.31,4.31,0,0,0,1.82-3.71,1.77,1.77,0,0,0-.74-1.49,1.82,1.82,0,0,0-1.48.08,7.4,7.4,0,0,0-2.64,1.82,2.21,2.21,0,0,1,.5-.72,5.61,5.61,0,0,1,2-1.41,2.21,2.21,0,0,1,1.79-.13,2.17,2.17,0,0,1,1,1.82,4.72,4.72,0,0,1-2,4.16l-.27-.44a12.7,12.7,0,0,1,2.45-1.08,4.75,4.75,0,0,1,3,.05,3,3,0,0,1,1.9,2,3.71,3.71,0,0,1-.22,2.5,4,4,0,0,1-1.45,1.62,4.33,4.33,0,0,1-3,.61,2.88,2.88,0,0,1-.79-.26C267.36,238.47,267.27,238.42,267.28,238.4Z" style="fill:#263238"></path><path d="M277.2,237.53a15.56,15.56,0,0,1-.18-2.78c0-1.72-.07-4.1-.06-6.73v-1.53h.52a13.81,13.81,0,0,1-1.62,5.51,6.12,6.12,0,0,1-1.34,1.87c-.07,0,.44-.75,1-2a15,15,0,0,0,1.4-5.38l.52,0V228c0,2.63,0,5-.09,6.73A13.88,13.88,0,0,1,277.2,237.53Z" style="fill:#263238"></path><path d="M280.21,232.81a8.5,8.5,0,0,1,0-3.56,8.62,8.62,0,0,1,1-3.41,22.2,22.2,0,0,1-.51,3.49A22.3,22.3,0,0,1,280.21,232.81Z" style="fill:#263238"></path><path d="M284.55,232.28a11.35,11.35,0,0,1-4.83.2,11.37,11.37,0,0,1,4.83-.2Z" style="fill:#263238"></path><path d="M284.91,239.52a7.34,7.34,0,0,1-.39-2,42.55,42.55,0,0,1-.3-4.95,41.69,41.69,0,0,1,.26-5,7,7,0,0,1,.37-2c.15,0-.13,3.13-.11,7S285.06,239.51,284.91,239.52Z" style="fill:#263238"></path><path d="M288.76,236.28a4.05,4.05,0,0,1,1,0,6.22,6.22,0,0,0,2.6-.33,2.91,2.91,0,0,0,1.31-1.12,1.78,1.78,0,0,0,.11-1.81,2.47,2.47,0,0,0-1.74-1.15,5.59,5.59,0,0,0-2.41.21l-.37.1-2.4.64,2.22-1.13a11,11,0,0,0,2-1.33c.3-.25.58-.51.85-.78a3.13,3.13,0,0,0,.63-.81.71.71,0,0,0-.18-.75,1.33,1.33,0,0,0-.77-.34,4.53,4.53,0,0,0-1.71.19,5.43,5.43,0,0,0-2.18,1.29c-.44.42-.62.71-.66.69a2.18,2.18,0,0,1,.52-.83,5.12,5.12,0,0,1,2.21-1.49,4.73,4.73,0,0,1,1.86-.28,1.79,1.79,0,0,1,1.05.45,1.15,1.15,0,0,1,.3,1.23,3.09,3.09,0,0,1-.72,1,11.46,11.46,0,0,1-.87.83,11.33,11.33,0,0,1-2.12,1.41l-.19-.49.38-.1a6.17,6.17,0,0,1,2.63-.21,3,3,0,0,1,2.07,1.43,2.23,2.23,0,0,1-.17,2.28,3.2,3.2,0,0,1-1.54,1.22,5.67,5.67,0,0,1-2.75.19A3.45,3.45,0,0,1,288.76,236.28Z" style="fill:#263238"></path><path d="M299.12,241.23a18.17,18.17,0,0,1,.35-3c.28-1.87.71-4.45,1.21-7.29.25-1.41.5-2.76.72-4,.08-.32.08-.57,0-.62s-.42-.05-.69,0l-1.54.14a17.92,17.92,0,0,1-3.06.15,16.1,16.1,0,0,1,3-.52l1.53-.2a1.56,1.56,0,0,1,1,.08.71.71,0,0,1,.29.57,2.59,2.59,0,0,1-.05.51c-.22,1.25-.45,2.6-.69,4-.5,2.84-1,5.41-1.36,7.26A17.73,17.73,0,0,1,299.12,241.23Z" style="fill:#263238"></path><path d="M305.44,232.94a18.54,18.54,0,0,1-4.29.6,18.9,18.9,0,0,1-4.33.08,17.34,17.34,0,0,1,4.29-.6A17.61,17.61,0,0,1,305.44,232.94Z" style="fill:#263238"></path><path d="M314.8,234.35a16.65,16.65,0,0,1-2.49.88c-1.58.5-3.81,1.18-6.4,1.94l-.63.19.35-.56c.6-1,1.23-2,1.9-3.05l1.38-2.2a17.44,17.44,0,0,0,1.21-2.06,2,2,0,0,0,.06-1.9,1.7,1.7,0,0,0-1.47-.72,3.19,3.19,0,0,0-2.25,1.2,6.37,6.37,0,0,1-.68.76,3,3,0,0,1,.52-.89,4.64,4.64,0,0,1,.86-.87,2.77,2.77,0,0,1,1.55-.57,2.09,2.09,0,0,1,1.84.86,2.47,2.47,0,0,1,0,2.32,16.14,16.14,0,0,1-1.21,2.13L308,234c-.67,1.06-1.32,2.08-1.92,3l-.28-.38c2.6-.73,4.85-1.34,6.45-1.76A15.23,15.23,0,0,1,314.8,234.35Z" style="fill:#263238"></path><path d="M246.68,229.31a1.82,1.82,0,0,0-1.8,1.45c-.34,1.46,1,5.51,3.31,6.65a1.66,1.66,0,0,0,1.66-.58l0-.1-.78-1.81-1.07.38s-1.91-2-1.46-3.28c0,0,.78-.68.85-.62S246.68,229.31,246.68,229.31Z" style="fill:#263238"></path><path d="M250.23,234.58a5.47,5.47,0,0,0-.21-2.19c-.49-1.11-1.55-1.47-1.49-1.61s.31-.07.73.12a2.65,2.65,0,0,1,1.24,1.28,2.61,2.61,0,0,1,.12,1.78C250.49,234.4,250.28,234.61,250.23,234.58Z" style="fill:#263238"></path><path d="M251.62,235.65c-.08,0,.13-.44.26-1.11a4.25,4.25,0,0,0-.32-2.57,4.2,4.2,0,0,0-1.82-1.83c-.6-.32-1-.4-1-.49s.48-.11,1.18.15a3.89,3.89,0,0,1,2.34,4.83C252,235.34,251.66,235.68,251.62,235.65Z" style="fill:#263238"></path><rect x="236.38" y="187.15" width="6.03" height="8.85" style="fill:#fafafa"></rect><rect x="315.28" y="186.86" width="6.03" height="4.22" style="fill:#fafafa"></rect></g><g id="freepik--Characters--inject-153"><path d="M533,222.74a1.38,1.38,0,0,1,.2-.45l3.47.68s5.52-.74,5.76-.54,6.15,6,6.35,6,8.25.85,8.25.85l.19,10-7.25-.11-6.19-8.93L534,224.83A1.93,1.93,0,0,1,533,222.74Z" style="fill:#ffbe9d"></path><path d="M602.61,282.39l12.27,71.36a22.88,22.88,0,0,0,4.72,10.45l30.22,37.54,12.31-10.07-22.76-45.36-3.13-63.8Z" style="fill:#263238"></path><path d="M610.63,282.34l-2.25,70s2.93,14.17,3,21.13-3.23,37.27-3.23,37.27l-13,.15-9.24-54-3.77-74.38Z" style="fill:#263238"></path><path d="M613.67,346.68c-.14,0-2.33-13.74-4.88-30.74s-4.5-30.79-4.35-30.81,2.32,13.74,4.87,30.74S613.81,346.66,613.67,346.68Z" style="fill:#455a64"></path><path d="M662.13,391.67l.38.52,7.38,9.92,9.22,6.53-12.83,23.83-13.74-.19s1-3.28,7.68-4.89l.63-13.18L649.17,401" style="fill:#FF6600"></path><g style="opacity:0.6000000000000001"><polygon points="679.12 408.64 666.28 432.47 652.54 432.28 654.12 430.24 665.3 429.78 677.15 407.25 679.12 408.64" style="fill:#fff"></polygon></g><path d="M660.39,421.35c.1.14.9-.3,2-.25s1.84.49,1.95.36-.64-.94-1.93-1S660.27,421.24,660.39,421.35Z" style="fill:#263238"></path><path d="M660.66,418.08c.14.1.76-.7,1.86-.9s2,.32,2.06.17-.11-.29-.49-.5a2.59,2.59,0,0,0-3.16.58C660.65,417.77,660.59,418,660.66,418.08Z" style="fill:#263238"></path><path d="M660.63,413.88c.15.08.63-.71,1.59-1s1.82,0,1.89-.14-.14-.26-.51-.41a2.38,2.38,0,0,0-2.81.94C660.58,413.59,660.56,413.85,660.63,413.88Z" style="fill:#263238"></path><path d="M657,410.57c.16.06.56-.71,1.42-1.25s1.71-.61,1.73-.79-1-.4-2.06.28S656.83,410.55,657,410.57Z" style="fill:#263238"></path><path d="M655.24,407.73c.07,0,.53-.5,1.22-1.42l1.19-1.64a4.43,4.43,0,0,0,.65-1.1,1.06,1.06,0,0,0-.07-.83.86.86,0,0,0-.82-.45,2.66,2.66,0,0,0-1.3.65,4.64,4.64,0,0,0-1.59,2.91,2.55,2.55,0,0,0,.28,1.88,15.23,15.23,0,0,1,.14-1.8,4.7,4.7,0,0,1,.78-1.73,4.45,4.45,0,0,1,.77-.8,2.14,2.14,0,0,1,1-.5.24.24,0,0,1,.26.12.52.52,0,0,1,0,.39,4.65,4.65,0,0,1-.54.95l-1.08,1.71A6.14,6.14,0,0,0,655.24,407.73Z" style="fill:#263238"></path><path d="M654.75,408.13c.06,0,0-.73-.71-1.56a3.46,3.46,0,0,0-4.07-.8.7.7,0,0,0-.22.49.88.88,0,0,0,.16.44,2.13,2.13,0,0,0,.49.44,6.91,6.91,0,0,0,1,.57,6.29,6.29,0,0,0,1.8.53c1.07.13,1.72-.07,1.7-.14s-.65-.06-1.62-.28a6.9,6.9,0,0,1-1.63-.61,5.41,5.41,0,0,1-.86-.55,1.86,1.86,0,0,1-.35-.31c-.06-.12,0-.09,0-.12a1.07,1.07,0,0,1,.4-.15,4.46,4.46,0,0,1,.51-.07,3.41,3.41,0,0,1,1,.09,3.32,3.32,0,0,1,1.47.77C654.46,407.53,654.65,408.17,654.75,408.13Z" style="fill:#263238"></path><g style="opacity:0.6000000000000001"><path d="M668.16,408.06a1.63,1.63,0,1,0,1.65-1.6A1.63,1.63,0,0,0,668.16,408.06Z" style="fill:#fff"></path></g><path d="M608.94,406.72l-.07,26-32.39.41c.15-3.1,18.18-9.43,18.18-9.43l-.38-17.48Z" style="fill:#FF6600"></path><g style="opacity:0.6000000000000001"><path d="M603.32,422.08a1.33,1.33,0,0,1,.93,1.5,1.27,1.27,0,0,1-1.48.94,1.4,1.4,0,0,1-1-1.59,1.32,1.32,0,0,1,1.65-.81" style="fill:#fff"></path></g><g style="opacity:0.6000000000000001"><path d="M608.87,432.73l-.12-2.63-31,1.38s-1.43.64-1.26,1.66Z" style="fill:#fff"></path></g><path d="M594.18,424c0,.16.8.22,1.58.72s1.21,1.16,1.35,1.1-.1-1-1.06-1.57S594.14,423.86,594.18,424Z" style="fill:#263238"></path><path d="M590,425.53c0,.15.66.41,1.2,1.08s.71,1.36.87,1.36.25-.91-.45-1.72S590,425.38,590,425.53Z" style="fill:#263238"></path><path d="M588.14,429.47c.14,0,.35-.77-.06-1.63s-1.16-1.19-1.23-1.06.4.59.73,1.3S588,429.45,588.14,429.47Z" style="fill:#263238"></path><path d="M594.38,419.66c.07.14.79-.08,1.69,0s1.59.32,1.67.18-.59-.69-1.65-.73S594.3,419.54,594.38,419.66Z" style="fill:#263238"></path><path d="M593.76,415.78a3.16,3.16,0,0,0,1.62,0A7.38,7.38,0,0,0,598,414.7a2,2,0,0,0,.48-.39.68.68,0,0,0,.07-.84.86.86,0,0,0-.7-.35,1.87,1.87,0,0,0-.61.09,5.6,5.6,0,0,0-1,.36,5.68,5.68,0,0,0-1.49,1c-.74.7-1,1.3-.94,1.33s.44-.45,1.19-1a6.43,6.43,0,0,1,1.44-.84,6.33,6.33,0,0,1,.93-.3c.34-.09.63-.1.72,0s0,.09,0,.19a1.67,1.67,0,0,1-.36.28,7.53,7.53,0,0,1-.85.5,8.39,8.39,0,0,1-1.56.62A9.6,9.6,0,0,0,593.76,415.78Z" style="fill:#263238"></path><path d="M594,416a2.62,2.62,0,0,0,.41-1.57,5.13,5.13,0,0,0-.25-1.77,4.9,4.9,0,0,0-.42-1,1.33,1.33,0,0,0-1.05-.81.76.76,0,0,0-.67.46,2.56,2.56,0,0,0-.16.6,4,4,0,0,0,0,1.09,3.67,3.67,0,0,0,.72,1.67c.64.83,1.3,1,1.31,1s-.5-.38-1-1.18a3.69,3.69,0,0,1-.53-1.52,3,3,0,0,1,0-.94c0-.34.17-.62.3-.59s.44.25.57.53a4.57,4.57,0,0,1,.41.87,5.88,5.88,0,0,1,.34,1.62C594,415.39,593.88,416,594,416Z" style="fill:#263238"></path><path d="M538.5,238.13c0,.13-.6.05-1.13-.35s-.76-.92-.64-1,.49.23.95.58S538.55,238,538.5,238.13Z" style="fill:#fafafa"></path><path d="M537.58,239.77c-.15,0-.24-.52-.21-1.15s.18-1.13.32-1.12.24.52.2,1.15S537.72,239.78,537.58,239.77Z" style="fill:#fafafa"></path><path d="M556.19,216.14c-.14,0-.67-5.65-.67-5.65s2.09.44,2.47,1.91.68,2.74.68,2.74l5.22,1.47,5.48-1.73-2.27,3.57s-3,.44-3.2.43S556.19,216.14,556.19,216.14Z" style="fill:#eb996e"></path><path d="M573.91,222.94l-12.08-1.14s-9.15-5.54-10.18-6.22a1,1,0,0,1-.42-.63,1.14,1.14,0,0,1,1.54-1.19l10.72,3.75a2.33,2.33,0,0,0,1.94-.23l4.5-2.7s-1.85-1.76-3-3.11a2.16,2.16,0,0,1-.32-2.61c1.45.2,8.82,5.6,8.82,5.6l3.08,2.36Z" style="fill:#ffbe9d"></path><path d="M558.62,215.24l1.62-4.73s1.44.17,1.29,2-.11,3.34-.11,3.34l2.43,1-5.26-1.45" style="fill:#eb996e"></path><path d="M552.29,228.28l25.15-2.06,15.85-23.53,7.49,18.06-8.56,12.9A16.5,16.5,0,0,1,577.81,241l-25.48-1Z" style="fill:#FF6600"></path><path d="M617,136.43c.27,3.62,5.2,5.63,5.28,9.27,0,1.56-.88,3-1,4.55-.17,2.09,1.07,4,1.58,6,1,4.19-1.24,8.74-4.79,11.19s-8.11,3.08-12.41,2.66" style="fill:#263238"></path><path d="M587.74,136.68c.22,1.95-1,3.74-2.24,5.25s-2.62,3.09-2.83,5c-.36,3.45,3.12,6.5,2.56,9.92-.3,1.83-1.73,3.35-1.93,5.19a6.41,6.41,0,0,0,2.07,4.8c1.23,1.3,2.59,1,3.69,2.47a14.68,14.68,0,0,0,4.69,3.85c3.84,1.91,8.23-1.25,10-1.85" style="fill:#263238"></path><path d="M617.79,138.49c0-1.77-1.71-3.07-3.37-3.65s-3.51-.76-5-1.69a24,24,0,0,1-3.4-3.22,10.89,10.89,0,0,0-18.1,5.71c-.53,2.54,0,5.5,2.07,7.09,2.37,1.85,5.77,1.29,8.69.57s6.24-1.45,8.77.19c1.53,1,2.45,2.65,3.42,4.19s2.17,3.1,3.91,3.62,4-.59,4-2.41" style="fill:#263238"></path><path d="M611.05,138.32l-15.84-3.39c-5-.34-8.16,6-8.29,11-.14,5.62-.1,12.48.72,16.63,1.64,8.36,8.13,9.19,8.13,9.19s.42,10.26.6,14.31l17.73-.41-.3-44.45A2.94,2.94,0,0,0,611.05,138.32Z" style="fill:#ffbe9d"></path><path d="M588.27,152c.14.14.94-.5,2.1-.53s2,.5,2.15.36-.09-.32-.47-.57a2.9,2.9,0,0,0-1.73-.47,2.82,2.82,0,0,0-1.66.61C588.32,151.66,588.21,151.92,588.27,152Z" style="fill:#263238"></path><path d="M600,151.81c.14.14.93-.5,2.09-.54s2,.51,2.15.37-.08-.32-.46-.57a2.94,2.94,0,0,0-1.73-.47,2.82,2.82,0,0,0-1.66.61C600,151.49,599.9,151.75,600,151.81Z" style="fill:#263238"></path><path d="M595.85,158.82a8.35,8.35,0,0,0-1.9-.27c-.29,0-.58-.07-.63-.27a1.47,1.47,0,0,1,.16-.88c.25-.73.52-1.49.8-2.29a38.22,38.22,0,0,0,1.74-6A39.84,39.84,0,0,0,593.8,155c-.26.8-.52,1.56-.76,2.3a1.68,1.68,0,0,0-.11,1.16.76.76,0,0,0,.51.42,1.84,1.84,0,0,0,.5,0A7.24,7.24,0,0,0,595.85,158.82Z" style="fill:#263238"></path><path d="M595.77,171.77a16.48,16.48,0,0,0,10.93-2.61c-.09,0-2.71,5.86-10.8,5.29Z" style="fill:#eb996e"></path><path d="M596.44,161.6a2.1,2.1,0,0,1,1.85-.85,1.9,1.9,0,0,1,1.34.66,1.22,1.22,0,0,1,.15,1.38,1.41,1.41,0,0,1-1.51.44,4.28,4.28,0,0,1-1.52-.83,1.19,1.19,0,0,1-.34-.33.38.38,0,0,1,0-.43" style="fill:#FF6600"></path><path d="M599.29,159.5c-.18,0-.14,1.25-1.19,2.19s-2.39.84-2.39,1,.31.23.88.23a3.15,3.15,0,0,0,2-.78,2.76,2.76,0,0,0,.91-1.84C599.53,159.8,599.38,159.49,599.29,159.5Z" style="fill:#263238"></path><path d="M599.71,146.7c.13.31,1.28.12,2.65.24s2.48.44,2.65.15-.13-.43-.58-.72a4.49,4.49,0,0,0-2-.61,4.44,4.44,0,0,0-2.06.32C599.9,146.3,599.66,146.56,599.71,146.7Z" style="fill:#263238"></path><path d="M588.53,146.09c.21.25,1-.05,2-.1s1.78.11,2-.17-.06-.4-.43-.63a2.64,2.64,0,0,0-1.61-.37,2.72,2.72,0,0,0-1.55.58C588.54,145.69,588.43,146,588.53,146.09Z" style="fill:#263238"></path><path d="M615.5,167.1c-2.3.56-2.55-.61-4.34-2.15a7.56,7.56,0,0,1-2.57-6.31c.18-2.07,1.21-4.22.42-6.14-1-2.55-4.7-3.2-5.76-5.74-.62-1.48-.19-3.25-.88-4.69a5.57,5.57,0,0,0-3.57-2.55,14.44,14.44,0,0,1-4.18-1.63c-1.23-.88-2-2.59-1.32-3.91a79.24,79.24,0,0,1,18.54,3.74,7.11,7.11,0,0,1,3.72,2.21,7.47,7.47,0,0,1,.92,4.47q-.09,11.34-.17,22.68" style="fill:#263238"></path><path d="M620.11,149.75A6.46,6.46,0,0,1,632.23,147c1.26,2.33,1,5.23,0,7.69-1.18,2.91-3.73,5.63-6.88,5.61-3,0-5.44-2.52-6.4-5.32s-.74-5.85-.5-8.8" style="fill:#263238"></path><path d="M622.21,161.2a1.43,1.43,0,0,0,.42-.51,4.11,4.11,0,0,0,.56-1.7,8.07,8.07,0,0,0-.18-2.66c-.21-1-.58-2-.87-3.09a7.7,7.7,0,0,1-.3-3.1,24.36,24.36,0,0,1,.71-2.51,3.24,3.24,0,0,0,0-1.8,1.17,1.17,0,0,0-.35-.56s.11.21.21.61a3.27,3.27,0,0,1-.1,1.69,22.36,22.36,0,0,0-.79,2.51,8,8,0,0,0,.28,3.25c.3,1.11.68,2.13.9,3.08a8.2,8.2,0,0,1,.25,2.55A5.51,5.51,0,0,1,622.21,161.2Z" style="fill:#455a64"></path><path d="M621.94,151.1a4.09,4.09,0,0,0,1.33,1.21,7.4,7.4,0,0,0,8.32-.18,4,4,0,0,0,1.28-1.27s-.51.47-1.43,1a7.79,7.79,0,0,1-4,1.22,7.89,7.89,0,0,1-4-1C622.46,151.55,622,151.05,621.94,151.1Z" style="fill:#455a64"></path><path d="M622.4,152.4a4.09,4.09,0,0,0,.77,1.29,9.21,9.21,0,0,0,6.23,3.43,4,4,0,0,0,1.5-.05c0-.06-.57-.06-1.47-.21a10.49,10.49,0,0,1-6.06-3.33A13.05,13.05,0,0,0,622.4,152.4Z" style="fill:#455a64"></path><path d="M620.74,164.07s0,0,.09-.1a3.24,3.24,0,0,0,.22-.35,4.43,4.43,0,0,0,.49-1.49,5.14,5.14,0,0,0-.23-2.48,4.72,4.72,0,0,0-2.06-2.55c-1-.67-2.34-1.1-3.21-2.19a2.54,2.54,0,0,1-.53-2,11.12,11.12,0,0,1,.64-2.21,6.24,6.24,0,0,0-.3-5,5.42,5.42,0,0,0-1.79-2,6.59,6.59,0,0,0-2.62-1c-.92-.17-1.83-.26-2.68-.48a5.21,5.21,0,0,1-2.28-1.13,3.68,3.68,0,0,1-1.05-2.17,19.57,19.57,0,0,0-.49-2.42,8.46,8.46,0,0,0-2.43-3.89,6.58,6.58,0,0,0-3.64-1.63,5.26,5.26,0,0,0-3.23.62,5.07,5.07,0,0,0-1.81,1.7,4.27,4.27,0,0,0-.6,1.45,1.84,1.84,0,0,0-.06.54,5,5,0,0,1,2.57-3.51,5,5,0,0,1,3.1-.54,6.34,6.34,0,0,1,3.47,1.6,8.15,8.15,0,0,1,2.3,3.75,19.24,19.24,0,0,1,.47,2.4,4,4,0,0,0,1.15,2.36,5.49,5.49,0,0,0,2.44,1.23c.89.23,1.8.31,2.7.48a6.53,6.53,0,0,1,2.49.91,5.22,5.22,0,0,1,1.67,1.92,6,6,0,0,1,.3,4.74,10.75,10.75,0,0,0-.64,2.28,2.85,2.85,0,0,0,.61,2.18c1,1.17,2.32,1.59,3.31,2.22a4.51,4.51,0,0,1,2,2.4,5.11,5.11,0,0,1,.28,2.39A5.71,5.71,0,0,1,620.74,164.07Z" style="fill:#455a64"></path><path d="M619.26,140.63a1,1,0,0,0,.09-.39,1.84,1.84,0,0,0-.32-1.11,2.87,2.87,0,0,0-1.45-1.1,4.42,4.42,0,0,0-2.42,0c-.88.2-1.78.59-2.77.82a3.72,3.72,0,0,1-3.06-.36,6.64,6.64,0,0,1-1.91-2.95,12.65,12.65,0,0,0-2.08-3.39,11.71,11.71,0,0,0-6.52-3.86,6.62,6.62,0,0,0-3.36.22,5.2,5.2,0,0,0-2.4,1.68,3.93,3.93,0,0,0-.49,4.06,2.81,2.81,0,0,0,.67.93,1.07,1.07,0,0,0,.32.24,4,4,0,0,1-.86-1.23,3.87,3.87,0,0,1-.27-1.72,3.65,3.65,0,0,1,.84-2.11,5,5,0,0,1,2.29-1.56,6.45,6.45,0,0,1,3.2-.18,11.41,11.41,0,0,1,6.3,3.78,12.11,12.11,0,0,1,2,3.29,6.92,6.92,0,0,0,2.06,3.08,3.18,3.18,0,0,0,1.68.56,5.81,5.81,0,0,0,1.64-.18c1-.26,1.92-.66,2.76-.87a4.29,4.29,0,0,1,2.29-.07,2.83,2.83,0,0,1,1.4,1,1.82,1.82,0,0,1,.36,1C619.28,140.49,619.24,140.63,619.26,140.63Z" style="fill:#455a64"></path><path d="M638.83,282.51c1-25-8.3-42.2-9.94-49.67s.15-21.47-.19-29.1c-.23-5-.67-13-3.81-18.39S614.77,175,614.77,175L597,182.84s-6.8,16.94-10.08,25c-3.2,7.89,7.07,21.93,7.07,21.93S582.17,263,582.17,282.51Z" style="fill:#FF6600"></path><path d="M666.21,245.85l-21-35.29s-11.7,2.06-17,6-15.81,13.07-15.81,13.07l14.21,39.5a7,7,0,0,0,7.93,4.45l.16,0c3.78-.78,20.48-12,29.32-18.13A7.19,7.19,0,0,0,666.21,245.85Z" style="fill:#455a64"></path><path d="M614.77,175l-.81-5s-19.76,7.61-19.34,8.67,1.7,6.29,1.7,6.29Z" style="fill:#FF6600"></path><path d="M638.83,212.3a108.69,108.69,0,0,0-11.28-21.7c-5-7.08-11.47-12.52-15.68-11.12,0,0,3.73.69,7.82,6.22,5.21,7.05,12.34,29.06,12.34,29.06Z" style="fill:#263238"></path><path d="M603,191.43a2.19,2.19,0,0,1,0-.7c.06-.45.16-1.09.32-1.88a15.73,15.73,0,0,1,2.27-5.87,8.06,8.06,0,0,1,5.21-3.42,5.12,5.12,0,0,1,1.93.05,1.84,1.84,0,0,1,.66.24,7.93,7.93,0,0,0-2.54,0,8.16,8.16,0,0,0-4.93,3.37,17.43,17.43,0,0,0-2.32,5.71A21.75,21.75,0,0,1,603,191.43Z" style="fill:#263238"></path><path d="M606.07,182.44c-1.32,1.11-4.26,6.73-5,12.67-.56,4.59,1,10.77,1.74,15.34l.55-10.08s-.21-3.09-.12-6a21.68,21.68,0,0,1,.91-5.54Z" style="fill:#263238"></path><path d="M622,202.78a7.12,7.12,0,0,1,.8-1.73c.49-.93.87-1.68,1-1.64a3.72,3.72,0,0,1-.62,1.83C622.7,202.18,622.13,202.85,622,202.78Z" style="fill:#263238"></path><path d="M596.18,183.07a6.61,6.61,0,0,0,2.84-.33c1.71-.55,3.59-2.26,5.94-3.74a53.44,53.44,0,0,1,6.2-3.45c.83-.38,1.51-.67,2-.85a3,3,0,0,1,.75-.25c0,.06-1,.53-2.6,1.36s-3.8,2-6.11,3.53c-1.16.74-2.22,1.5-3.22,2.19a10.83,10.83,0,0,1-2.85,1.48,5.29,5.29,0,0,1-2.16.25A1.71,1.71,0,0,1,596.18,183.07Z" style="fill:#263238"></path><path d="M596.32,185a2.61,2.61,0,0,1-.17.54l-.55,1.5c-.53,1.36-1.26,3.21-2.14,5.47l-3.23,8.1-1.93,4.78c-.32.83-.68,1.67-1,2.53a11.21,11.21,0,0,0-.62,2.66c-.38,3.73.81,7.25,2.1,10.21s2.82,5.55,3.84,7.82a26,26,0,0,1,2,5.57,12.16,12.16,0,0,1,.25,1.58,2,2,0,0,1,0,.56c-.05,0-.13-.76-.48-2.09a29,29,0,0,0-2.09-5.46c-1.06-2.24-2.56-4.78-3.95-7.78s-2.57-6.58-2.18-10.47a11.93,11.93,0,0,1,.65-2.79c.33-.87.69-1.7,1-2.53l1.95-4.76,3.34-8.06c.94-2.24,1.72-4.07,2.29-5.42l.65-1.46A1.75,1.75,0,0,1,596.32,185Z" style="fill:#263238"></path><g style="opacity:0.30000000000000004"><path d="M593.45,239.32s5.74,13.36,21.9,9.68h0s3.28,29.54,18.66,24.7c-3.08.38-5.41-1-7.09-3.94l-11.57-32.11Z"></path></g><path d="M605.18,189.53,602,222.78l-22.9-7.21-6.88,9.34s37.36,31.37,44.17,12.93c7.11-19.25,5.51-41.16,5.51-41.16s-1.12-7.16-5.16-11.26S605.9,183.93,605.18,189.53Z" style="fill:#FF6600"></path><path d="M603.92,193s0,.19,0,.54,0,.9-.06,1.56c-.08,1.4-.19,3.42-.33,6-.3,5.2-.74,12.65-1.28,21.73v.26L602,223l-22.92-7.17.28-.09-6.64,9.43-.05-.35c3,2.42,6.44,4.67,9.9,7,2.24,1.48,4.45,2.93,6.59,4.43a64.94,64.94,0,0,0,6.49,4.08,32.27,32.27,0,0,0,6.79,2.81,15.06,15.06,0,0,0,6.94.41,10.25,10.25,0,0,0,5.59-3.32,10.07,10.07,0,0,0,1.43-2.81c.37-1,.69-2,1-3a81.74,81.74,0,0,0,2.86-11.08,133.13,133.13,0,0,0,1.5-16.51c.11-1.94.2-3.45.26-4.51,0-.49.06-.88.09-1.17a2.38,2.38,0,0,1,0-.4,2.47,2.47,0,0,1,0,.4c0,.29,0,.68,0,1.18,0,1.06-.1,2.57-.16,4.51a125.59,125.59,0,0,1-1.35,16.57,80.79,80.79,0,0,1-2.81,11.14c-.3,1-.62,2-1,3a10.36,10.36,0,0,1-1.5,2.94,10.65,10.65,0,0,1-5.85,3.5,15.52,15.52,0,0,1-7.15-.4,32.76,32.76,0,0,1-6.92-2.84,64.79,64.79,0,0,1-6.54-4.11c-2.13-1.49-4.34-2.94-6.57-4.41-3.47-2.29-6.88-4.55-9.94-7l-.19-.15.14-.2,6.66-9.42.1-.15.17.06,22.89,7.25-.27.18,1.46-21.71c.19-2.57.33-4.58.43-6,.06-.67.1-1.19.13-1.56S603.92,193,603.92,193Z" style="fill:#263238"></path><path d="M591.26,238.13a.73.73,0,0,1,0,.22l-.2.63-.83,2.43c-.65,2.14-1.6,5.24-2.52,9.19a257.77,257.77,0,0,0-5.24,31.94l-.25-.28h11l45.68.11-.15.15c.1-3.39.15-6.08.15-7.91,0-.91,0-1.62,0-2.09s0-.72,0-.72a3.39,3.39,0,0,1,.12.71c0,.48.08,1.18.1,2.1,0,1.84,0,4.52,0,7.92v.15h-.15l-45.68.11H581.89l0-.28a240.6,240.6,0,0,1,5.43-32c1-4,2-7.05,2.67-9.17l.91-2.4.25-.62A1,1,0,0,1,591.26,238.13Z" style="fill:#263238"></path><g style="opacity:0.30000000000000004"><path d="M622,202.7s1.62,17.56.9,18.16l-2.43,2S621.92,204.72,622,202.7Z"></path></g><path d="M558.44,191.16l7.94,4.38a2.19,2.19,0,0,1-3.12,1c-2.3-1-6.39-3.54-6.39-3.54l-3.16,1.27-2.41-2.92Z" style="fill:#aa6550"></path><path d="M542.15,206.83a8,8,0,0,0,7.42-.7c3.61-2.47,3.87-3.28,5.37-3.74,1.08-.33,6.12-1,8.11-1.49a1.15,1.15,0,0,0,.47-2,11.71,11.71,0,0,0-3.42-.7,13.82,13.82,0,0,0-3.13.33,8.26,8.26,0,0,1-4.48-1l.06-1.26,5-.89a20,20,0,0,0,5.53,3.1,6.57,6.57,0,0,0,3.3-.44l0-.28-7.1-5.09-6.64-1.12-2-.35-17.11,10.23,4.45,7.88Z" style="fill:#b78876"></path><rect x="560.01" y="202.04" width="6.03" height="8.81" rx="1.76" transform="translate(-31.55 128.37) rotate(-12.66)" style="fill:#455a64"></rect><path d="M561.36,198.34c0-.06.3-.13.79,0a2.33,2.33,0,0,1,1.6,1,2.56,2.56,0,0,1,.3,1.89c-.12.48-.31.73-.37.7s0-.31,0-.74a2.87,2.87,0,0,0-.37-1.58,2.55,2.55,0,0,0-1.27-1C561.64,198.49,561.35,198.42,561.36,198.34Z" style="fill:#263238"></path><path d="M562.05,202.84c.05.11-.66.52-1.59.12a1.28,1.28,0,0,1-.7-1c0-.3,0-.48.1-.48s.23.71.84,1S562,202.69,562.05,202.84Z" style="fill:#263238"></path><path d="M565.08,210.51s.12-.07.23-.27a1.26,1.26,0,0,0,.06-1c-.29-1.09-.56-2.12-.85-3.24s-.54-2.16-.8-3.26a.93.93,0,0,0-.54-.74.61.61,0,0,0-.35,0s.11-.13.37-.07a1,1,0,0,1,.66.78c.23.83.53,2,.86,3.25s.6,2.41.79,3.26a1.26,1.26,0,0,1-.13,1C565.23,210.49,565.08,210.52,565.08,210.51Z" style="fill:#263238"></path><path d="M564.23,204.66a13.45,13.45,0,0,1-2.14.72,11.67,11.67,0,0,1-2.2.51,12.9,12.9,0,0,1,2.14-.71A11.28,11.28,0,0,1,564.23,204.66Z" style="fill:#263238"></path><path d="M564.85,207.32a11.48,11.48,0,0,1-2.05.7,11,11,0,0,1-2.1.5,11.86,11.86,0,0,1,2-.7A10.8,10.8,0,0,1,564.85,207.32Z" style="fill:#263238"></path><path d="M565.62,210.36a1.26,1.26,0,0,0,.37-1.26c-.18-.85-1.47-6.08-1.47-6.08l.76-.23,1.32,5.82S566.82,210.08,565.62,210.36Z" style="fill:#e0e0e0"></path><path d="M511.55,403.86l-2.85,17.57s17,7.32,16.8,10.62l-34.39-2.83,3.34-27.57Z" style="fill:#FF6600"></path><path d="M498.29,418.61a1.4,1.4,0,0,0-1.17,1.47,1.36,1.36,0,0,0,1.45,1.18,1.49,1.49,0,0,0,1.23-1.57,1.41,1.41,0,0,0-1.65-1.05" style="fill:#ebebeb"></path><path d="M491.11,429.22l.34-2.75,32.5,3.31s1.76,1.28,1.61,2.35Z" style="fill:#ebebeb"></path><path d="M509.27,421.33c0,.16-.87.13-1.76.57s-1.42,1.08-1.57,1,.23-1,1.32-1.52S509.33,421.18,509.27,421.33Z" style="fill:#263238"></path><path d="M512.68,423.26c0,.17-.74.37-1.4,1s-.92,1.37-1.08,1.34-.16-1,.68-1.77S512.7,423.1,512.68,423.26Z" style="fill:#263238"></path><path d="M514.18,427.82c-.16,0-.29-.84.26-1.71s1.37-1.13,1.43-1-.5.58-.93,1.3S514.35,427.83,514.18,427.82Z" style="fill:#263238"></path><path d="M509.48,417.25c-.09.14-.83-.19-1.78-.24s-1.73.15-1.8,0,.72-.67,1.84-.59S509.58,417.13,509.48,417.25Z" style="fill:#263238"></path><path d="M510,413.69a3.23,3.23,0,0,1-1.71-.22,7.91,7.91,0,0,1-2.65-1.43,2.08,2.08,0,0,1-.47-.47.74.74,0,0,1,0-.9.94.94,0,0,1,.78-.29,2.5,2.5,0,0,1,.63.17,6.91,6.91,0,0,1,1,.5,6.19,6.19,0,0,1,1.46,1.24c.7.84.89,1.5.83,1.52s-.4-.52-1.14-1.23a6.72,6.72,0,0,0-1.42-1.06,6.36,6.36,0,0,0-.95-.43c-.35-.14-.66-.18-.77,0s-.05.08,0,.2a1.9,1.9,0,0,0,.35.34,7.66,7.66,0,0,0,.84.63,10,10,0,0,0,1.58.85A12.08,12.08,0,0,1,510,413.69Z" style="fill:#263238"></path><path d="M509.74,413.91a2.8,2.8,0,0,1-.24-1.72,5.78,5.78,0,0,1,.47-1.85,6.28,6.28,0,0,1,.57-1,1.42,1.42,0,0,1,1.2-.72.82.82,0,0,1,.66.56,2.79,2.79,0,0,1,.1.66,4,4,0,0,1-1.1,2.83c-.79.81-1.51.92-1.52.86s.58-.34,1.2-1.13a4,4,0,0,0,.75-1.54,3.66,3.66,0,0,0,.09-1c0-.37-.11-.68-.25-.66s-.49.21-.67.49a6.22,6.22,0,0,0-.54.87,6.49,6.49,0,0,0-.55,1.67C509.74,413.24,509.84,413.89,509.74,413.91Z" style="fill:#263238"></path><path d="M491.68,405.11l-1.46,17.75s17.54,5.95,17.59,9.25l-34.5-.1,1.14-27.74Z" style="fill:#FF6600"></path><path d="M479.62,420.87a1.41,1.41,0,0,0-1.05,1.56,1.36,1.36,0,0,0,1.54,1.05,1.48,1.48,0,0,0,1.1-1.66,1.4,1.4,0,0,0-1.72-.91" style="fill:#ebebeb"></path><path d="M473.31,432l.11-2.77,32.67.73s1.85,1.14,1.79,2.22Z" style="fill:#ebebeb"></path><path d="M490.79,422.71c0,.16-.86.2-1.72.71s-1.32,1.19-1.48,1.11.15-1,1.19-1.62S490.83,422.55,490.79,422.71Z" style="fill:#263238"></path><path d="M494.34,424.37c0,.17-.71.42-1.32,1.1s-.8,1.44-1,1.42-.23-1,.54-1.81S494.34,424.21,494.34,424.37Z" style="fill:#263238"></path><path d="M496.19,428.8c-.15,0-.35-.83.13-1.73s1.28-1.23,1.34-1.09-.44.61-.82,1.36S496.36,428.79,496.19,428.8Z" style="fill:#263238"></path><path d="M490.67,418.63c-.08.15-.84-.12-1.79-.1s-1.71.29-1.8.14.66-.72,1.79-.73S490.76,418.5,490.67,418.63Z" style="fill:#263238"></path><path d="M490.9,415a3.28,3.28,0,0,1-1.73-.09,7.59,7.59,0,0,1-1.78-.64,8.16,8.16,0,0,1-1-.57,2.09,2.09,0,0,1-.5-.43.75.75,0,0,1,0-.9.91.91,0,0,1,.76-.35,2,2,0,0,1,.64.12,5.58,5.58,0,0,1,1.06.42,6.08,6.08,0,0,1,1.55,1.12c.76.78,1,1.42.95,1.45s-.45-.5-1.23-1.15a7.45,7.45,0,0,0-1.5-.94,8.66,8.66,0,0,0-1-.35c-.36-.11-.67-.13-.78,0s0,.09,0,.2a2.07,2.07,0,0,0,.37.31,10,10,0,0,0,.89.56,9.57,9.57,0,0,0,1.64.72A11.48,11.48,0,0,1,490.9,415Z" style="fill:#263238"></path><path d="M490.67,415.27a2.71,2.71,0,0,1-.38-1.69,5.74,5.74,0,0,1,.32-1.88,6.87,6.87,0,0,1,.49-1,1.45,1.45,0,0,1,1.15-.82.78.78,0,0,1,.69.52,2,2,0,0,1,.15.64,3.72,3.72,0,0,1,0,1.16,3.91,3.91,0,0,1-.82,1.75c-.72.87-1.43,1-1.44,1s.55-.39,1.11-1.22a4.15,4.15,0,0,0,.62-1.6,3.35,3.35,0,0,0,0-1c0-.37-.16-.67-.3-.64s-.47.25-.63.54a5.63,5.63,0,0,0-.47.91,5.85,5.85,0,0,0-.41,1.71C490.61,414.61,490.76,415.25,490.67,415.27Z" style="fill:#263238"></path><path d="M475.84,173.74l19.49,4c.15-2.2-.46-16-.46-16s7.88-1.1,8.1-9-.89-25.93-.89-25.93h0a27.32,27.32,0,0,0-27.49,3.05l-1.18.88Z" style="fill:#b78876"></path><path d="M494.87,161.77a19,19,0,0,1-10.18-3.17s2.41,5.68,10.27,5.09Z" style="fill:#aa6550"></path><path d="M474.26,139c-.14-.06-5.38-1.67-5.29,3.7s5.47,4.18,5.48,4S474.26,139,474.26,139Z" style="fill:#b78876"></path><path d="M472.77,144.67s-.09.07-.25.15a1,1,0,0,1-.7,0,2.34,2.34,0,0,1-1.11-2.06,3.2,3.2,0,0,1,.24-1.34,1.06,1.06,0,0,1,.7-.73.47.47,0,0,1,.55.24c.08.15,0,.26.07.27s.12-.09.07-.31a.57.57,0,0,0-.22-.34.74.74,0,0,0-.52-.13,1.33,1.33,0,0,0-1,.85,3.22,3.22,0,0,0-.3,1.51,2.44,2.44,0,0,0,1.41,2.3,1,1,0,0,0,.85-.16C472.76,144.8,472.79,144.68,472.77,144.67Z" style="fill:#aa6550"></path><path d="M500.31,139.73a1.12,1.12,0,0,1-1.1,1.11,1.06,1.06,0,0,1-1.14-1,1.12,1.12,0,0,1,1.1-1.11A1.06,1.06,0,0,1,500.31,139.73Z" style="fill:#263238"></path><path d="M500.43,137.92c-.14.14-1-.5-2.19-.51s-2.1.57-2.23.42.08-.33.47-.6a3,3,0,0,1,1.79-.52,2.92,2.92,0,0,1,1.74.59C500.38,137.59,500.5,137.85,500.43,137.92Z" style="fill:#263238"></path><path d="M488.56,139.55a1.12,1.12,0,0,1-1.1,1.12,1.09,1.09,0,0,1-1.14-1,1.13,1.13,0,0,1,1.1-1.12A1.07,1.07,0,0,1,488.56,139.55Z" style="fill:#263238"></path><path d="M488.56,138c-.14.14-1-.5-2.19-.51s-2.11.57-2.23.42.08-.33.47-.6a3,3,0,0,1,1.79-.52,2.92,2.92,0,0,1,1.74.59C488.5,137.64,488.63,137.9,488.56,138Z" style="fill:#263238"></path><path d="M492.81,147a7.83,7.83,0,0,1,2-.33c.31,0,.61-.08.66-.29a1.58,1.58,0,0,0-.19-.92l-.88-2.36a40.81,40.81,0,0,1-2-6.17,39,39,0,0,1,2.45,6c.3.83.58,1.62.84,2.38a1.75,1.75,0,0,1,.14,1.21.74.74,0,0,1-.51.44,2.13,2.13,0,0,1-.52.07A8.11,8.11,0,0,1,492.81,147Z" style="fill:#263238"></path><path d="M489.24,147.77c.2,0,.18,1.31,1.29,2.25s2.51.83,2.51,1-.31.25-.9.26a3.28,3.28,0,0,1-2.1-.77,2.85,2.85,0,0,1-1-1.88C489,148.09,489.15,147.76,489.24,147.77Z" style="fill:#263238"></path><path d="M488.94,133.24c-.13.33-1.33.15-2.75.3s-2.57.52-2.75.22c-.09-.14.12-.44.59-.75a4.41,4.41,0,0,1,2-.69,4.59,4.59,0,0,1,2.15.29C488.73,132.82,489,133.08,488.94,133.24Z" style="fill:#263238"></path><path d="M500,134.42c-.22.27-1,0-2.05-.06s-1.85.16-2-.13c-.08-.14.06-.41.43-.67a2.86,2.86,0,0,1,1.67-.42,2.83,2.83,0,0,1,1.62.57C500,134,500.14,134.28,500,134.42Z" style="fill:#263238"></path><path d="M506,122a2.88,2.88,0,0,0-1-2.61,2.06,2.06,0,0,0-2.67.16,2.39,2.39,0,0,0-2-2.94c-1.28-.1-2.39.85-3.63,1.17a5.74,5.74,0,0,1-3.66-.48c-1.16-.48-2.24-1.14-3.41-1.59a10,10,0,0,0-12.94,5.71,4.47,4.47,0,0,0-4.76,1.72,7.35,7.35,0,0,0-1.2,5.14,16.61,16.61,0,0,0,.85,3.54c0,.1,0,.2,0,.3,0,4.33.43,9.41,2.27,9.46,3.22.1,2.54-6,2.54-6,4-1.46,2.58-7.39,3.58-8.27s3.1-2.94,11.29,1.4a16,16,0,0,0,9.78,1.21l.21,0h.05l.06,0a7.44,7.44,0,0,0,2.13-.86,4.23,4.23,0,0,0,1.78-1.92,2.28,2.28,0,0,0-.42-2.46A4.94,4.94,0,0,0,506,122Z" style="fill:#263238"></path><path d="M523.58,220.42l13,5.52,4,.05a4.37,4.37,0,0,1,3.11,1.37l5.43,5.4.48,6.21-4.12,3.12s-1.51.14-1-1.59l-2.46,1.55-2.64,0-2.56-.36-2.3-3.07s-.46-1.14,1.74-.5l2.06,1.64,2.08-2.1-4.08-3.14L530,234.1a2.26,2.26,0,0,1-1.6-.78l-1.93-2.21-3.75-.6Z" style="fill:#b78876"></path><path d="M545.85,233a18.46,18.46,0,0,1,.73,4.26,3.22,3.22,0,0,1-.11,1.79,3.08,3.08,0,0,1-1.06,1c-.66.43-.93.78-1,.76s.15-.54.76-1a3.39,3.39,0,0,0,.85-.92,3.09,3.09,0,0,0,0-1.53A18.24,18.24,0,0,1,545.85,233Z" style="fill:#aa6550"></path><path d="M539.08,241.91a13.79,13.79,0,0,1,2.65-2.48,1.6,1.6,0,0,0,.42-1.13c.05-.43.08-.82.1-1.14,0-.66.06-1.07.14-1.07s.18.39.23,1.07a11.26,11.26,0,0,1,0,1.18,4,4,0,0,1-.09.72,1.65,1.65,0,0,1-.44.74A12,12,0,0,1,539.08,241.91Z" style="fill:#aa6550"></path><path d="M542.05,242.05a7.93,7.93,0,0,1,1.83-1.43l0,0c-.11.13,0,0-.05,0v-.1l0-.2,0-.43c0-.3,0-.61.08-.93a18.14,18.14,0,0,1,.42-4.06,15.32,15.32,0,0,1,.1,4.11q0,.48-.09.93l-.06.44,0,.22,0,.11c0,.06,0,0-.12.23h0A7.2,7.2,0,0,1,542.05,242.05Z" style="fill:#aa6550"></path><path d="M529.66,233.7s-.28,1.45.58,1.9a2.23,2.23,0,0,0,1.86-.07s-.41,2.24,2.58,1.58c0,0-.2,1.42,1.81,1,0,0,0,2.14,1.86,1.62a2.75,2.75,0,0,0,2.08-2.1s0-2.57-1.67-2.42c0,0,1-1.68-.87-2a1.79,1.79,0,0,0-2.19,1.23,1,1,0,0,0-.92-1.31,1.82,1.82,0,0,0-1.89.81S531.05,231.71,529.66,233.7Z" style="fill:#ffbe9d"></path><path d="M533,233.88c.12.07,0,.49-.22,1s-.55.76-.67.69,0-.49.21-.94S532.87,233.81,533,233.88Z" style="fill:#eb996e"></path><path d="M535.87,234.15c.14,0,.28.78-.09,1.66s-1,1.34-1.12,1.23.33-.66.64-1.43S535.72,234.15,535.87,234.15Z" style="fill:#eb996e"></path><path d="M538.74,235.18c.13,0,0,.93-.68,1.78s-1.5,1.23-1.56,1.1.55-.64,1.15-1.42S538.6,235.13,538.74,235.18Z" style="fill:#eb996e"></path><path d="M522.27,330.45C521.28,319,508.39,255,508.39,255l-15.16,4h0l-29.43-5.61-2.47,18.88a28.85,28.85,0,0,0,3.06,17.14l4.95,52.32,2.35,78.68,24.29-.69.08-4.1,15.65,1.54S523.25,341.91,522.27,330.45Zm-24.78,11.1-.21-4.2.27,1.28Z" style="fill:#263238"></path><path d="M464.46,290.16s0,.22.09.65l.21,1.92c.17,1.71.42,4.21.75,7.43.63,6.47,1.54,15.85,2.68,27.5,1.5,11.64,1.55,25.67,2.13,41.34s1.05,33,1.63,51.36l-.27-.25,16.08-.45,8.21-.24-.25.26c.38-19.3.75-37.6,1.08-54.19.17-8.29.33-16.16.48-23.51.13-3.67,0-7.22,0-10.63s-.08-6.67-.12-9.79c-.15-12.46-.26-22.5-.34-29.46,0-3.45-.06-6.14-.07-8,0-.9,0-1.59,0-2.07s0-.71,0-.71,0,.24,0,.71,0,1.17.05,2.07c0,1.84.09,4.52.16,8,.12,6.95.29,17,.51,29.46q.08,4.68.15,9.79c0,3.41.18,7,.06,10.63-.14,7.36-.28,15.22-.43,23.52-.32,16.59-.67,34.89-1,54.19v.25H496l-8.2.24-16.08.45h-.26v-.25c-.56-18.36-1.09-35.69-1.57-51.36s-.57-29.7-2-41.34c-1.07-11.65-1.93-21-2.52-27.51-.29-3.22-.51-5.72-.66-7.43-.07-.83-.12-1.48-.16-1.93S464.46,290.16,464.46,290.16Z" style="fill:#455a64"></path><path d="M496.69,171s9.18,3.8,10.19,9.67c.33,1.91,5.74,27.93,5.74,27.93l20.69-9.12,7.88,11.1-33.43,21.88h0l-11.86-7.83Z" style="fill:#455a64"></path><path d="M504.23,184.63a2.1,2.1,0,0,1,.1.53l.15,1.51c.1,1.38.23,3.26.4,5.55.29,4.76.69,11.21,1.13,18.34s.89,13.57,1.2,18.33c.16,2.29.3,4.17.4,5.55,0,.61.07,1.11.09,1.52a1.81,1.81,0,0,1,0,.53,2.08,2.08,0,0,1-.1-.52c-.05-.41-.12-.9-.19-1.51-.16-1.3-.35-3.2-.57-5.54-.42-4.68-.91-11.16-1.35-18.33s-.77-13.65-1-18.35c-.1-2.29-.18-4.17-.23-5.56,0-.61,0-1.11,0-1.52A1.84,1.84,0,0,1,504.23,184.63Z" style="fill:#263238"></path><path d="M496.69,171l-2-6.13-2.59,8.78-17.72-10.61-3.17,5.44-13.92,7.34c-1.48,2.61-2.39,26.28-2.39,26.28,0,1.27,8,34.69,8,34.69l-5.17,39.77,46.05.68.4-16.66,3.16,16.71,9.27-2.64-8.35-41.14-11.75-63.25" style="fill:#455a64"></path><path d="M457.33,175.83h0c-8.1,6.89-8.11,15.4-5.91,24L458.49,223a17.54,17.54,0,0,0,18.77,13.1l45.9-3.87.51-12.74-45.07-4.6Z" style="fill:#455a64"></path><path d="M457.33,175.83l-.18.18-.55.52-.92.83c-.37.33-.7.8-1.13,1.28-.2.25-.43.5-.65.79l-.61.95a8.91,8.91,0,0,0-.65,1.05l-.59,1.21a19.9,19.9,0,0,0-1.64,6.15,26.67,26.67,0,0,0,.45,7.89,42.23,42.23,0,0,0,1.25,4.33l1.46,4.63c2,6.39,4.29,13.59,6.76,21.43h0a13.3,13.3,0,0,0,7.41,7.44,22.52,22.52,0,0,0,11.46,1.22h0l27.58-2.33L523.14,232l-.23.25q.26-6.52.51-12.74l.23.26-45.07-4.67h-.11l0-.11c-3.08-9.06-5.57-16.4-7.3-21.5-.84-2.52-1.5-4.49-1.95-5.85-.22-.66-.38-1.17-.5-1.53s-.15-.52-.15-.52.07.16.2.5l.54,1.51,2.06,5.83c1.76,5.08,4.31,12.4,7.45,21.44l-.16-.12,45.08,4.53.23,0v.23q-.24,6.21-.5,12.74v.23l-.22,0-16.34,1.38-27.58,2.31h0a23,23,0,0,1-11.74-1.28,13.79,13.79,0,0,1-7.65-7.71h0c-2.45-7.85-4.69-15.05-6.68-21.45q-.75-2.4-1.45-4.64a43.77,43.77,0,0,1-1.23-4.37,26.89,26.89,0,0,1-.4-8,20.17,20.17,0,0,1,1.72-6.21l.61-1.21a12,12,0,0,1,.67-1.06l.63-.95c.22-.28.46-.53.67-.78a17,17,0,0,1,1.17-1.26l.94-.82.58-.49A1.54,1.54,0,0,1,457.33,175.83Z" style="fill:#263238"></path><path d="M466.92,182.52a22,22,0,0,1-2.07-1,13.41,13.41,0,0,0-5.23-1.31,8.94,8.94,0,0,0-5.09,1.46,21.25,21.25,0,0,0-1.72,1.47,4.24,4.24,0,0,1,1.5-1.77,8.6,8.6,0,0,1,5.32-1.68,12,12,0,0,1,5.39,1.5A6.52,6.52,0,0,1,466.92,182.52Z" style="fill:#263238"></path><polygon points="472.35 166.6 497.15 216.67 501.49 217.05 496.69 171.01 494.73 164.88 492.1 173.19 474.33 161.54 472.35 166.6" style="fill:#fff"></polygon><path d="M500,217.12a12.24,12.24,0,0,1-.46-1.7c-.26-1.1-.61-2.7-1-4.68-.82-4-1.88-9.44-3-15.51s-2-11.58-2.64-15.58c-.31-2-.54-3.62-.68-4.74a10.17,10.17,0,0,1-.16-1.75,13,13,0,0,1,.36,1.72c.21,1.2.5,2.79.84,4.71.73,4.06,1.71,9.51,2.8,15.54s2.08,11.48,2.82,15.54l.86,4.71A10.65,10.65,0,0,1,500,217.12Z" style="fill:#263238"></path><path d="M492.1,173.19s0,.06-.12.14a1.5,1.5,0,0,0-.33.36,5.66,5.66,0,0,0-.77,1.71,25.58,25.58,0,0,0-.75,6.67v.52l-.39-.34c-1.58-1.38-3.42-2.9-5.36-4.5-3.49-2.88-6.62-5.55-8.75-7.63-1.07-1-1.9-1.9-2.46-2.52a7.14,7.14,0,0,1-.82-1,5.31,5.31,0,0,1,1,.86c.6.57,1.47,1.4,2.57,2.39,2.19,2,5.34,4.61,8.84,7.5,1.93,1.6,3.76,3.14,5.33,4.55l-.39.17a23,23,0,0,1,.95-6.75,5,5,0,0,1,.92-1.73,1.5,1.5,0,0,1,.41-.33C492,173.2,492.1,173.18,492.1,173.19Z" style="fill:#263238"></path><path d="M496.69,171a7.11,7.11,0,0,1-.07,2.12c-.12,1.31-.42,3.09-.67,5.06l0,.16-.16,1.25-.35-1.2a17.34,17.34,0,0,0-1.71-4.59,1.35,1.35,0,0,0-1.12-.67c-.32,0-.51.11-.53.06s.14-.18.51-.26a1.49,1.49,0,0,1,1.42.65,13.91,13.91,0,0,1,1.93,4.66l-.51,0,0-.17c.26-2,.61-3.75.83-5A10.22,10.22,0,0,1,496.69,171Z" style="fill:#263238"></path><path d="M471.88,247.17a2.11,2.11,0,0,1,.42-.09l1.28-.2,4.81-.68L495,244l.34,0-.06.34-1.39,7.11,0,.19-.2,0h-.06c-9.75.85-18.43,1.58-23.93,2l-.25,0,.08-.23c.72-1.94,1.29-3.5,1.71-4.64l.46-1.21a2.07,2.07,0,0,1,.18-.39,2.1,2.1,0,0,1-.12.46l-.39,1.26c-.38,1.13-.89,2.69-1.53,4.62l-.17-.21c5.49-.54,14.16-1.35,23.91-2.2h.07l-.24.21c.49-2.46,1-4.85,1.4-7.1l.28.29-16.53,2-4.88.54-1.32.13A1.61,1.61,0,0,1,471.88,247.17Z" style="fill:#263238"></path><path d="M497.33,216.84a1.36,1.36,0,0,1-.32-.24l-.85-.75L493,213l-10.7-10,0,0,0-.06c-.75-2.2-1.55-4.57-2.37-7l-6.2-18.69-1.82-5.68c-.19-.63-.35-1.14-.47-1.55a2.26,2.26,0,0,1-.13-.56,3,3,0,0,1,.23.52l.56,1.53,2,5.63c1.64,4.83,3.88,11.39,6.34,18.64l2.35,7-.06-.1,10.57,10.13,3,3,.8.81A1.56,1.56,0,0,1,497.33,216.84Z" style="fill:#263238"></path><path d="M478.44,214.7c.11.12-1.48,1.51-2.78,3.7a45.45,45.45,0,0,0-2,4.19,11.18,11.18,0,0,1,4.76-7.89Z" style="fill:#263238"></path><path d="M502.59,234.09c.14,0,.68,6.44,1.21,14.42s.83,14.44.69,14.45-.69-6.45-1.21-14.42S502.44,234.1,502.59,234.09Z" style="fill:#263238"></path><g style="opacity:0.30000000000000004"><path d="M461.14,229.22s2.24,12.64,10.12,11.69,30-6.84,30-6.84l-24,2.07S466.21,237.54,461.14,229.22Z"></path></g><g style="opacity:0.30000000000000004"><polyline points="505.07 198.99 505.21 199.6 509.47 218.08 506.21 217.75"></polyline></g></g></svg>
